<?xml version="1.0" encoding="UTF-8" standalone="no"?>
<svg
   xmlns:dc="http://purl.org/dc/elements/1.1/"
   xmlns:cc="http://creativecommons.org/ns#"
   xmlns:rdf="http://www.w3.org/1999/02/22-rdf-syntax-ns#"
   xmlns:svg="http://www.w3.org/2000/svg"
   xmlns="http://www.w3.org/2000/svg"
   id="svg8"
   version="1.1"
   viewBox="0 0 127 100"
   height="100mm"
   width="127mm">
  <defs
     id="defs2" />
  <metadata
     id="metadata5">
    <rdf:RDF>
      <cc:Work
         rdf:about="">
        <dc:format>image/svg+xml</dc:format>
        <dc:type
           rdf:resource="http://purl.org/dc/dcmitype/StillImage" />
        <dc:title />
      </cc:Work>
    </rdf:RDF>
  </metadata>
  <g
     transform="translate(9.155e-8,-197)"
     id="layer1">
    <g
       id="text817"
       style="font-style:normal;font-variant:normal;font-weight:500;font-stretch:normal;font-size:140.8451px;line-height:1.25;font-family:Raleway;-inkscape-font-specification:'Raleway, Medium';font-variant-ligatures:normal;font-variant-caps:normal;font-variant-numeric:normal;font-feature-settings:normal;text-align:start;letter-spacing:0px;word-spacing:0px;writing-mode:lr-tb;text-anchor:start;fill:#000000;fill-opacity:1;stroke:none;stroke-width:3.3011"
       aria-label="31">
      <path
         id="path9"
         style="font-style:normal;font-variant:normal;font-stretch:normal;font-size:140.8451px;font-family:'Kurier Heavy';-inkscape-font-specification:'Kurier Heavy,  weight=860';font-variant-ligatures:normal;font-variant-caps:normal;font-variant-numeric:normal;font-feature-settings:normal;text-align:start;writing-mode:lr-tb;text-anchor:start;stroke-width:3.3011"
         d="M 67.04,268.8 C 67.04,256.4 57.18,245.7 43.66,242.1 55.63,239 62.96,231 62.96,220.2 62.96,206.3 50.42,197 31.55,197 21.83,197 12.25,200.4 4.789,206.6 V 216.2 C 12.25,210 21.83,206.6 31.55,206.6 40,206.6 45.49,212.1 45.49,220.2 45.49,236.4 39.01,241.4 22.39,241.4 V 250.2 C 39.86,250.2 48.17,253.1 48.17,268.8 48.17,279.1 41.55,287.4 33.52,287.4 21.69,287.4 10,284.1 3.251e-4,277.9 V 287.4 C 10,293.6 21.69,297 33.52,297 51.97,297 67.04,284.3 67.04,268.8 Z" />
      <path
         id="path11"
         style="font-style:normal;font-variant:normal;font-stretch:normal;font-size:140.8451px;font-family:'Kurier Heavy';-inkscape-font-specification:'Kurier Heavy,  weight=860';font-variant-ligatures:normal;font-variant-caps:normal;font-variant-numeric:normal;font-feature-settings:normal;text-align:start;writing-mode:lr-tb;text-anchor:start;stroke-width:3.3011"
         d="M 127,295.6 V 198.4 H 113.9 C 106.6,207.4 97.59,214.9 87.59,220.8 V 230.4 L 109.6,220.2 V 295.6 Z" />
    </g>
  </g>
</svg>
