<?xml version="1.0" encoding="UTF-8" standalone="no"?>
<svg
   xmlns:dc="http://purl.org/dc/elements/1.1/"
   xmlns:cc="http://creativecommons.org/ns#"
   xmlns:rdf="http://www.w3.org/1999/02/22-rdf-syntax-ns#"
   xmlns:svg="http://www.w3.org/2000/svg"
   xmlns="http://www.w3.org/2000/svg"
   width="127mm"
   height="100mm"
   viewBox="0 0 127 100"
   version="1.1"
   id="svg8">
  <defs
     id="defs2" />
  <metadata
     id="metadata5">
    <rdf:RDF>
      <cc:Work
         rdf:about="">
        <dc:format>image/svg+xml</dc:format>
        <dc:type
           rdf:resource="http://purl.org/dc/dcmitype/StillImage" />
        <dc:title></dc:title>
      </cc:Work>
    </rdf:RDF>
  </metadata>
  <g
     id="layer1"
     transform="translate(9.155e-8,-197)">
    <g
       aria-label="31"
       style="font-style:normal;font-variant:normal;font-weight:500;font-stretch:normal;font-size:140.8451px;line-height:1.25;font-family:Raleway;-inkscape-font-specification:'Raleway, Medium';font-variant-ligatures:normal;font-variant-caps:normal;font-variant-numeric:normal;font-feature-settings:normal;text-align:start;letter-spacing:0px;word-spacing:0px;writing-mode:lr-tb;text-anchor:start;fill:#000000;fill-opacity:1;stroke:none;stroke-width:3.3011"
       id="text817">
      <path
         d="M 67.04,268.8 C 67.04,262.6 64.57,256.8 60.42,252.1 56.26,247.5 50.42,243.9 43.66,242.1 49.65,240.5 54.47,237.8 57.8,234 61.13,230.3 62.96,225.6 62.96,220.2 62.96,213.3 59.82,207.5 54.33,203.4 48.84,199.3 40.99,197 31.55,197 26.69,197 21.86,197.8 17.32,199.5 12.78,201.1 8.519,203.5 4.789,206.6 V 216.2 C 8.519,213.1 12.78,210.7 17.32,209.1 21.86,207.4 26.69,206.6 31.55,206.6 35.78,206.6 39.26,208 41.69,210.4 44.12,212.7 45.49,216.1 45.49,220.2 45.49,228.3 43.87,233.6 40.17,236.9 36.48,240.1 30.7,241.4 22.39,241.4 V 250.2 C 31.12,250.2 37.57,250.9 41.83,253.6 46.09,256.3 48.17,261 48.17,268.8 48.17,274 46.52,278.6 43.86,282 41.2,285.3 37.53,287.4 33.52,287.4 27.6,287.4 21.72,286.6 16.07,285 10.42,283.4 5,281 3.251e-4,277.9 V 287.4 C 5,290.5 10.42,292.9 16.07,294.5 21.72,296.1 27.6,297 33.52,297 42.75,297 51.13,293.8 57.2,288.7 63.27,283.6 67.04,276.5 67.04,268.8 Z"
         style="font-style:normal;font-variant:normal;font-stretch:normal;font-size:140.8451px;font-family:'Kurier Heavy';-inkscape-font-specification:'Kurier Heavy,  weight=860';font-variant-ligatures:normal;font-variant-caps:normal;font-variant-numeric:normal;font-feature-settings:normal;text-align:start;writing-mode:lr-tb;text-anchor:start;stroke-width:3.3011"
         id="path9" />
      <path
         d="M 127,295.6 V 198.4 H 113.9 C 110.2,202.9 106.2,207 101.8,210.8 97.34,214.5 92.59,217.9 87.59,220.8 V 230.4 L 109.6,220.2 V 295.6 Z"
         style="font-style:normal;font-variant:normal;font-stretch:normal;font-size:140.8451px;font-family:'Kurier Heavy';-inkscape-font-specification:'Kurier Heavy,  weight=860';font-variant-ligatures:normal;font-variant-caps:normal;font-variant-numeric:normal;font-feature-settings:normal;text-align:start;writing-mode:lr-tb;text-anchor:start;stroke-width:3.3011"
         id="path11" />
    </g>
  </g>
</svg>
