<?xml version="1.0" encoding="UTF-8" standalone="no"?>
<svg
   xmlns:dc="http://purl.org/dc/elements/1.1/"
   xmlns:cc="http://creativecommons.org/ns#"
   xmlns:rdf="http://www.w3.org/1999/02/22-rdf-syntax-ns#"
   xmlns:svg="http://www.w3.org/2000/svg"
   xmlns="http://www.w3.org/2000/svg"
   id="svg8"
   version="1.1"
   viewBox="0 0 127 100"
   height="100mm"
   width="127mm">
  <defs
     id="defs2" />
  <metadata
     id="metadata5">
    <rdf:RDF>
      <cc:Work
         rdf:about="">
        <dc:format>image/svg+xml</dc:format>
        <dc:type
           rdf:resource="http://purl.org/dc/dcmitype/StillImage" />
        <dc:title></dc:title>
      </cc:Work>
    </rdf:RDF>
  </metadata>
  <g
     transform="translate(9.155e-8,-197)"
     id="layer1">
    <g
       id="text817"
       style="font-style:normal;font-variant:normal;font-weight:500;font-stretch:normal;font-size:140.8451px;line-height:1.25;font-family:Raleway;-inkscape-font-specification:'Raleway, Medium';font-variant-ligatures:normal;font-variant-caps:normal;font-variant-numeric:normal;font-feature-settings:normal;text-align:start;letter-spacing:0px;word-spacing:0px;writing-mode:lr-tb;text-anchor:start;fill:#000000;fill-opacity:1;stroke:none;stroke-width:3.3011"
       aria-label="31">
      <path
         id="path9"
         style="font-style:normal;font-variant:normal;font-stretch:normal;font-size:140.8451px;font-family:'Kurier Heavy';-inkscape-font-specification:'Kurier Heavy,  weight=860';font-variant-ligatures:normal;font-variant-caps:normal;font-variant-numeric:normal;font-feature-settings:normal;text-align:start;writing-mode:lr-tb;text-anchor:start;stroke-width:3.3011"
         d="M 67.04,268.8 C 67.04,265.7 66.42,262.7 65.29,259.9 64.15,257.1 62.49,254.4 60.42,252.1 58.34,249.8 55.84,247.7 53.01,246 50.19,244.3 47.04,243 43.66,242.1 46.65,241.3 49.36,240.2 51.73,238.9 54.1,237.5 56.13,235.9 57.8,234 59.46,232.1 60.75,230 61.63,227.7 62.5,225.4 62.96,222.9 62.96,220.2 62.96,216.8 62.17,213.6 60.7,210.7 59.23,207.9 57.07,205.5 54.33,203.4 51.58,201.4 48.25,199.8 44.42,198.7 40.59,197.6 36.27,197 31.55,197 29.12,197 26.7,197.2 24.31,197.6 21.93,198 19.59,198.6 17.32,199.5 15.05,200.3 12.85,201.3 10.75,202.5 8.652,203.7 6.654,205 4.789,206.6 V 216.2 C 6.654,214.6 8.652,213.3 10.75,212.1 12.85,210.9 15.05,209.9 17.32,209.1 19.59,208.2 21.93,207.6 24.31,207.2 26.7,206.8 29.12,206.6 31.55,206.6 33.66,206.6 35.59,207 37.3,207.6 39,208.2 40.47,209.2 41.69,210.4 42.9,211.5 43.85,213 44.5,214.6 45.15,216.3 45.49,218.1 45.49,220.2 45.49,224.3 45.08,227.6 44.22,230.3 43.35,233.1 42.02,235.2 40.17,236.9 38.32,238.5 35.96,239.6 33.01,240.3 30.07,241.1 26.54,241.4 22.39,241.4 V 250.2 C 26.75,250.2 30.55,250.4 33.79,250.9 37.02,251.4 39.7,252.2 41.83,253.6 43.96,254.9 45.55,256.8 46.6,259.3 47.65,261.8 48.17,264.9 48.17,268.8 48.17,271.4 47.76,273.8 47.01,276.1 46.27,278.3 45.19,280.3 43.86,282 42.53,283.6 40.95,285 39.2,285.9 37.45,286.9 35.53,287.4 33.52,287.4 30.56,287.4 27.61,287.2 24.69,286.8 21.78,286.4 18.89,285.8 16.07,285 13.25,284.2 10.48,283.2 7.791,282 5.105,280.8 2.5,279.4 3.251e-4,277.9 V 287.4 C 2.5,289 5.105,290.3 7.791,291.5 10.48,292.7 13.25,293.7 16.07,294.5 18.89,295.3 21.78,295.9 24.69,296.4 27.61,296.8 30.56,297 33.52,297 38.14,297 42.54,296.2 46.54,294.8 50.55,293.3 54.16,291.2 57.2,288.7 60.23,286.1 62.69,283.1 64.4,279.7 66.1,276.3 67.04,272.6 67.04,268.8 Z" />
      <path
         id="path11"
         style="font-style:normal;font-variant:normal;font-stretch:normal;font-size:140.8451px;font-family:'Kurier Heavy';-inkscape-font-specification:'Kurier Heavy,  weight=860';font-variant-ligatures:normal;font-variant-caps:normal;font-variant-numeric:normal;font-feature-settings:normal;text-align:start;writing-mode:lr-tb;text-anchor:start;stroke-width:3.3011"
         d="M 127,295.6 V 198.4 H 113.9 C 112,200.6 110.1,202.8 108.1,204.9 106.1,206.9 104,208.9 101.8,210.8 99.57,212.6 97.27,214.4 94.9,216.1 92.53,217.8 90.09,219.3 87.59,220.8 V 230.4 L 109.6,220.2 V 295.6 Z" />
    </g>
  </g>
</svg>
