2800 0 1 0           
10 Cubit 15.6 19 ACIS 28.0.2 Unknown 24 Fri Sep 18 17:57:55 2020 
1 9.9999999999999995e-07 1e-10 
T @77 5Z7M_9DRQU24V8SC8RC95_8MS9QKRGN8_DU3N6SAQCM3FE7XEC54G6Q379QUSJN8FCUBFPQWPB_CG 
body $1 -1 -1 $-1 0 $2 $-1 $3 T -120 -75 -5 120 75 3 #
integer_attrib-name_attrib-gen-attrib $-1 -1 $4 $-1 $0 2 1 1 1 1 1 1 1 1 1 1 1 1 1 0 1 1 1 @8 CUBIT_ID 1 #
lump $5 -1 -1 $-1 $-1 $6 $0 T -120 -75 -5 120 75 3 #
transform $-1 -1 1 0 0 0 1 0 0 0 1 0 0 0 1 no_rotate no_reflect no_shear #
simple-snl-attrib $-1 -1 $-1 $1 $0 1 1 1 1 1 1 1 1 1 1 1 1 0 1 0 1 1 1 @17 NEW_SIMPLE_ATTRIB 1 @9 ENTITY_ID 0 3 1 -2147483648 -1 #
integer_attrib-name_attrib-gen-attrib $-1 -1 $7 $-1 $2 2 1 1 1 1 1 1 1 1 1 1 1 1 1 0 1 1 1 @8 CUBIT_ID 1 #
shell $-1 -1 -1 $-1 $-1 $-1 $8 $-1 $2 T -120 -75 -5 120 75 3 #
simple-snl-attrib $-1 -1 $-1 $5 $2 1 1 1 1 1 1 1 1 1 1 1 1 0 1 0 1 1 1 @17 NEW_SIMPLE_ATTRIB 1 @9 ENTITY_ID 0 3 1 -2147483648 -1 #
face $9 -1 -1 $-1 $10 $11 $6 $-1 $12 reversed single T -116.00000297736257 -71.000002977362584 -1.7727366241615528e-09 116.00000297736257 -69.999999997499998 3 F #
integer_attrib-name_attrib-gen-attrib $-1 -1 $13 $-1 $8 2 1 1 1 1 1 1 1 1 1 1 1 1 1 0 1 1 1 @8 CUBIT_ID 9 #
face $14 -1 -1 $-1 $15 $16 $6 $-1 $17 reversed single T -116.00000297736257 -71.000002977362584 -1.7727366241615528e-09 -114.999999996 71.00000297736257 3 F #
loop $-1 -1 -1 $-1 $-1 $18 $8 T -116.00000297736257 -71.000002977362584 -1.7727366241615528e-09 116.00000297736257 -69.999999997499998 3 unknown #
plane-surface $-1 -1 -1 $-1 -1 -70 0 0 -0.94868301559280488 -0.31622861338870301 0 0.31622861338870306 -0.94868301559280499 forward_v I I I I #
simple-snl-attrib $-1 -1 $-1 $9 $8 1 1 1 1 1 1 1 1 1 1 1 1 0 1 0 1 1 1 @17 NEW_SIMPLE_ATTRIB 1 @9 ENTITY_ID 0 3 9 -2147483648 -1 #
integer_attrib-name_attrib-gen-attrib $-1 -1 $19 $-1 $10 2 1 1 1 1 1 1 1 1 1 1 1 1 1 0 1 1 1 @8 CUBIT_ID 10 #
face $20 -1 -1 $-1 $21 $22 $6 $-1 $23 reversed single T -116.00000297736257 69.999999997499998 -1.7727295187341952e-09 116.00000297736257 71.00000297736257 3 F #
loop $-1 -1 -1 $-1 $-1 $24 $10 T -116.00000297736257 -71.000002977362584 -1.7727366241615528e-09 -114.999999996 71.00000297736257 3 unknown #
plane-surface $-1 -1 -1 $-1 -115 -1 0 -0.94868301559280532 0 -0.31622861338870195 -0.31622861338870195 0 0.94868301559280532 forward_v I I I I #
coedge $-1 -1 -1 $-1 $25 $26 $27 $28 reversed $11 $-1 #
simple-snl-attrib $-1 -1 $-1 $14 $10 1 1 1 1 1 1 1 1 1 1 1 1 0 1 0 1 1 1 @17 NEW_SIMPLE_ATTRIB 1 @9 ENTITY_ID 0 3 10 -2147483648 -1 #
integer_attrib-name_attrib-gen-attrib $-1 -1 $29 $-1 $15 2 1 1 1 1 1 1 1 1 1 1 1 1 1 0 1 1 1 @8 CUBIT_ID 8 #
face $30 -1 -1 $-1 $31 $32 $6 $-1 $33 reversed single T 114.999999996 -71.000002977362584 -1.772733071447874e-09 116.00000297736257 71.00000297736257 3 F #
loop $-1 -1 -1 $-1 $-1 $34 $15 T -116.00000297736257 69.999999997499998 -1.7727295187341952e-09 116.00000297736257 71.00000297736257 3 unknown #
plane-surface $-1 -1 -1 $-1 -1 70 0 0 0.94868301559280488 -0.31622861338870301 -0 0.31622861338870306 0.94868301559280499 forward_v I I I I #
coedge $-1 -1 -1 $-1 $35 $36 $37 $38 forward $16 $-1 #
coedge $-1 -1 -1 $-1 $37 $18 $39 $40 forward $11 $-1 #
coedge $-1 -1 -1 $-1 $18 $37 $41 $42 forward $11 $-1 #
coedge $-1 -1 -1 $-1 $43 $44 $18 $28 forward $32 $-1 #
edge $45 -1 -1 $-1 $46 27.889867311646569 $47 31.206493899381172 $27 $48 forward @7 unknown T 114.999999996 -71.000002977362584 -1.772733071447874e-09 116.00000297736257 -69.999999997499998 3 #
simple-snl-attrib $-1 -1 $-1 $20 $15 1 1 1 1 1 1 1 1 1 1 1 1 0 1 0 1 1 1 @17 NEW_SIMPLE_ATTRIB 1 @9 ENTITY_ID 0 3 8 -2147483648 -1 #
integer_attrib-name_attrib-gen-attrib $-1 -1 $49 $-1 $21 2 1 1 1 1 1 1 1 1 1 1 1 1 1 0 1 1 1 @8 CUBIT_ID 11 #
face $50 -1 -1 $-1 $51 $52 $6 $-1 $53 reversed single T -120 75 -5 120 75 3 F #
loop $-1 -1 -1 $-1 $-1 $27 $21 T 114.999999996 -71.000002977362584 -1.772733071447874e-09 116.00000297736257 71.00000297736257 3 unknown #
plane-surface $-1 -1 -1 $-1 114.99999999999999 -1 0 0.94868301559280532 0 -0.31622861338870195 -0.31622861338870195 0 -0.94868301559280532 forward_v I I I I #
coedge $-1 -1 -1 $-1 $54 $55 $56 $57 reversed $22 $-1 #
coedge $-1 -1 -1 $-1 $58 $24 $59 $60 forward $16 $-1 #
coedge $-1 -1 -1 $-1 $24 $58 $61 $62 forward $16 $-1 #
coedge $-1 -1 -1 $-1 $26 $25 $24 $38 reversed $11 $-1 #
edge $63 -1 -1 $-1 $64 -30.904981820315154 $65 -27.58835523258055 $24 $66 forward @7 unknown T -116.00000297736257 -71.000002977362584 -1.7727366241615528e-09 -114.999999996 -69.999999997499998 3 #
coedge $-1 -1 -1 $-1 $67 $59 $25 $40 reversed $68 $-1 #
edge $69 -1 -1 $-1 $46 -114.999999996 $65 114.999999996 $39 $70 forward @7 unknown T -114.999999996 -69.999999997499998 0 114.999999996 -69.999999997499998 0 #
coedge $-1 -1 -1 $-1 $61 $71 $26 $42 reversed $72 $-1 #
edge $73 -1 -1 $-1 $64 -115.50000297736257 $47 116.50000297736257 $41 $74 forward @7 unknown T -116.00000297736257 -71.000002977362584 3 116.00000297736257 -71.00000297736257 3 #
coedge $-1 -1 -1 $-1 $56 $27 $71 $75 forward $32 $-1 #
coedge $-1 -1 -1 $-1 $27 $56 $67 $76 forward $32 $-1 #
integer_attrib-name_attrib-gen-attrib $-1 -1 $77 $-1 $28 2 1 1 1 1 1 1 1 1 1 1 1 1 1 0 1 1 1 @8 CUBIT_ID 19 #
vertex $78 -1 -1 $-1 $40 $79 #
vertex $80 -1 -1 $-1 $75 $81 #
straight-curve $-1 -1 -1 $-1 106.59086812139924 -61.590868121399218 -25.227320524922405 0.30151207906601468 -0.30151207906601585 0.90453354407372744 I I #
simple-snl-attrib $-1 -1 $-1 $30 $21 1 1 1 1 1 1 1 1 1 1 1 1 0 1 0 1 1 1 @17 NEW_SIMPLE_ATTRIB 1 @9 ENTITY_ID 0 3 11 -2147483648 -1 #
integer_attrib-name_attrib-gen-attrib $-1 -1 $82 $-1 $31 2 1 1 1 1 1 1 1 1 1 1 1 1 1 0 1 1 1 @8 CUBIT_ID 6 #
face $83 -1 -1 $-1 $84 $72 $6 $-1 $85 forward single T -120 -75 3 120 75 3 F #
loop $-1 -1 -1 $-1 $-1 $86 $31 T -120 75 -5 120 75 3 unknown #
plane-surface $-1 -1 -1 $-1 0 75 -2.5 0 -1 0 0 0 -1 forward_v I I I I #
coedge $-1 -1 -1 $-1 $87 $34 $88 $89 forward $22 $-1 #
coedge $-1 -1 -1 $-1 $34 $87 $90 $91 forward $22 $-1 #
coedge $-1 -1 -1 $-1 $44 $43 $34 $57 forward $32 $-1 #
edge $92 -1 -1 $-1 $93 -31.508005978447187 $94 -28.191379390712591 $56 $95 forward @7 unknown T 114.999999996 69.999999997499998 -1.7727259660205164e-09 116.00000297736257 71.00000297736257 3 #
coedge $-1 -1 -1 $-1 $36 $35 $87 $96 forward $16 $-1 #
coedge $-1 -1 -1 $-1 $39 $90 $35 $60 reversed $68 $-1 #
edge $97 -1 -1 $-1 $65 -69.999999997499998 $98 69.999999997499998 $59 $99 forward @7 unknown T -114.999999996 -69.999999997499998 0 -114.999999996 69.999999997499998 0 #
coedge $-1 -1 -1 $-1 $88 $41 $36 $62 reversed $72 $-1 #
edge $100 -1 -1 $-1 $101 -71.50000297736257 $64 70.500002977362584 $61 $102 forward @7 unknown T -116.00000297736257 -71.000002977362584 3 -116.00000297736257 71.00000297736257 3 #
integer_attrib-name_attrib-gen-attrib $-1 -1 $103 $-1 $38 2 1 1 1 1 1 1 1 1 1 1 1 1 1 0 1 1 1 @8 CUBIT_ID 20 #
vertex $104 -1 -1 $-1 $42 $105 #
vertex $106 -1 -1 $-1 $40 $107 #
straight-curve $-1 -1 -1 $-1 -106.68177765522196 -61.681777655221929 -24.954592735463784 0.30151207906601468 0.30151207906601585 -0.90453354407372744 I I #
coedge $-1 -1 -1 $-1 $90 $39 $44 $76 reversed $68 $-1 #
loop $-1 -1 -1 $-1 $-1 $39 $108 T -114.999999996 -69.999999997499998 0 114.999999996 69.999999997499998 0 unknown #
integer_attrib-name_attrib-gen-attrib $-1 -1 $109 $-1 $40 2 1 1 1 1 1 1 1 1 1 1 1 1 1 0 1 1 1 @8 CUBIT_ID 11 #
straight-curve $-1 -1 -1 $-1 0 -69.999999997499998 0 -1 0 0 I I #
coedge $-1 -1 -1 $-1 $41 $88 $43 $75 reversed $72 $-1 #
loop $-1 -1 -1 $-1 $110 $41 $51 T -116.00000297736257 -71.000002977362584 3 116.00000297736257 71.00000297736257 3 unknown #
integer_attrib-name_attrib-gen-attrib $-1 -1 $111 $-1 $42 2 1 1 1 1 1 1 1 1 1 1 1 1 1 0 1 1 1 @8 CUBIT_ID 18 #
straight-curve $-1 -1 -1 $-1 -0.5 -71.00000297736257 3 1 0 -0 I I #
edge $112 -1 -1 $-1 $47 -70.500002977362584 $93 71.50000297736257 $71 $113 forward @7 unknown T 116.00000297736257 -71.000002977362584 3 116.00000297736257 71.00000297736257 3 #
edge $114 -1 -1 $-1 $94 -69.999999997499998 $46 69.999999997499998 $67 $115 forward @7 unknown T 114.999999996 -69.999999997499998 0 114.999999996 69.999999997499998 0 #
simple-snl-attrib $-1 -1 $-1 $45 $28 1 1 1 1 1 1 1 1 1 1 1 1 0 1 0 1 1 1 @17 NEW_SIMPLE_ATTRIB 1 @9 ENTITY_ID 0 3 19 -2147483648 -1 #
integer_attrib-name_attrib-gen-attrib $-1 -1 $116 $-1 $46 2 1 1 1 1 1 1 1 1 1 1 1 1 1 0 1 1 1 @8 CUBIT_ID 11 #
point $-1 -1 -1 $-1 114.999999996 -69.999999997499998 0 #
integer_attrib-name_attrib-gen-attrib $-1 -1 $117 $-1 $47 2 1 1 1 1 1 1 1 1 1 1 1 1 1 0 1 1 1 @8 CUBIT_ID 13 #
point $-1 -1 -1 $-1 116.00000297736257 -71.000002977362584 3 #
simple-snl-attrib $-1 -1 $-1 $50 $31 1 1 1 1 1 1 1 1 1 1 1 1 0 1 0 1 1 1 @17 NEW_SIMPLE_ATTRIB 1 @9 ENTITY_ID 0 3 6 -2147483648 -1 #
integer_attrib-name_attrib-gen-attrib $-1 -1 $118 $-1 $51 2 1 1 1 1 1 1 1 1 1 1 1 1 1 0 1 1 1 @8 CUBIT_ID 7 #
face $119 -1 -1 $-1 $120 $121 $6 $-1 $122 reversed single T 120 -75 -5 120 75 3 F #
plane-surface $-1 -1 -1 $-1 0 0 3 0 0 1 1 0 0 forward_v I I I I #
coedge $-1 -1 -1 $-1 $123 $124 $125 $126 reversed $52 $-1 #
coedge $-1 -1 -1 $-1 $55 $54 $58 $96 reversed $22 $-1 #
coedge $-1 -1 -1 $-1 $71 $61 $54 $89 reversed $72 $-1 #
edge $127 -1 -1 $-1 $93 -116.50000297736257 $101 115.50000297736257 $88 $128 forward @7 unknown T -116.00000297736257 71.00000297736257 3 116.00000297736257 71.00000297736257 3 #
coedge $-1 -1 -1 $-1 $59 $67 $55 $91 reversed $68 $-1 #
edge $129 -1 -1 $-1 $98 -114.999999996 $94 114.999999996 $90 $130 forward @7 unknown T -114.999999996 69.999999997499998 0 114.999999996 69.999999997499998 0 #
integer_attrib-name_attrib-gen-attrib $-1 -1 $131 $-1 $57 2 1 1 1 1 1 1 1 1 1 1 1 1 1 0 1 1 1 @8 CUBIT_ID 23 #
vertex $132 -1 -1 $-1 $89 $133 #
vertex $134 -1 -1 $-1 $91 $135 #
straight-curve $-1 -1 -1 $-1 106.49995858757651 61.499958587576501 -25.500048314381026 -0.30151207906601468 -0.30151207906601585 -0.90453354407372744 I I #
edge $136 -1 -1 $-1 $98 27.889867311646572 $101 31.206493899381172 $58 $137 forward @7 unknown T -116.00000297736257 69.999999997499998 -1.7727295187341952e-09 -114.999999996 71.00000297736257 3 #
integer_attrib-name_attrib-gen-attrib $-1 -1 $138 $-1 $60 2 1 1 1 1 1 1 1 1 1 1 1 1 1 0 1 1 1 @8 CUBIT_ID 12 #
vertex $139 -1 -1 $-1 $60 $140 #
straight-curve $-1 -1 -1 $-1 -114.999999996 0 0 0 1 0 I I #
integer_attrib-name_attrib-gen-attrib $-1 -1 $141 $-1 $62 2 1 1 1 1 1 1 1 1 1 1 1 1 1 0 1 1 1 @8 CUBIT_ID 22 #
vertex $142 -1 -1 $-1 $62 $143 #
straight-curve $-1 -1 -1 $-1 -116.00000297736257 -0.5 3 -0 -1 0 I I #
simple-snl-attrib $-1 -1 $-1 $63 $38 1 1 1 1 1 1 1 1 1 1 1 1 0 1 0 1 1 1 @17 NEW_SIMPLE_ATTRIB 1 @9 ENTITY_ID 0 3 20 -2147483648 -1 #
integer_attrib-name_attrib-gen-attrib $-1 -1 $144 $-1 $64 2 1 1 1 1 1 1 1 1 1 1 1 1 1 0 1 1 1 @8 CUBIT_ID 14 #
point $-1 -1 -1 $-1 -116.00000297736257 -71.000002977362584 3 #
integer_attrib-name_attrib-gen-attrib $-1 -1 $145 $-1 $65 2 1 1 1 1 1 1 1 1 1 1 1 1 1 0 1 1 1 @8 CUBIT_ID 12 #
point $-1 -1 -1 $-1 -114.999999996 -69.999999997499998 0 #
face $146 -1 -1 $-1 $147 $68 $6 $-1 $148 forward single T -114.999999996 -69.999999997499998 0 114.999999996 69.999999997499998 0 F #
simple-snl-attrib $-1 -1 $-1 $69 $40 1 1 1 1 1 1 1 1 1 1 1 1 0 1 0 1 1 1 @17 NEW_SIMPLE_ATTRIB 1 @9 ENTITY_ID 0 3 11 -2147483648 -1 #
loop $-1 -1 -1 $-1 $-1 $149 $51 T -120 -75 3 120 75 3 unknown #
simple-snl-attrib $-1 -1 $-1 $73 $42 1 1 1 1 1 1 1 1 1 1 1 1 0 1 0 1 1 1 @17 NEW_SIMPLE_ATTRIB 1 @9 ENTITY_ID 0 3 18 -2147483648 -1 #
integer_attrib-name_attrib-gen-attrib $-1 -1 $150 $-1 $75 2 1 1 1 1 1 1 1 1 1 1 1 1 1 0 1 1 1 @8 CUBIT_ID 24 #
straight-curve $-1 -1 -1 $-1 116.00000297736257 -0.5 3 -0 1 0 I I #
integer_attrib-name_attrib-gen-attrib $-1 -1 $151 $-1 $76 2 1 1 1 1 1 1 1 1 1 1 1 1 1 0 1 1 1 @8 CUBIT_ID 10 #
straight-curve $-1 -1 -1 $-1 114.999999996 0 0 0 -1 0 I I #
simple-snl-attrib $-1 -1 $-1 $78 $46 1 1 1 1 1 1 1 1 1 1 1 1 0 1 0 1 1 1 @17 NEW_SIMPLE_ATTRIB 1 @9 ENTITY_ID 0 3 11 -2147483648 -1 #
simple-snl-attrib $-1 -1 $-1 $80 $47 1 1 1 1 1 1 1 1 1 1 1 1 0 1 0 1 1 1 @17 NEW_SIMPLE_ATTRIB 1 @9 ENTITY_ID 0 3 13 -2147483648 -1 #
simple-snl-attrib $-1 -1 $-1 $83 $51 1 1 1 1 1 1 1 1 1 1 1 1 0 1 0 1 1 1 @17 NEW_SIMPLE_ATTRIB 1 @9 ENTITY_ID 0 3 7 -2147483648 -1 #
integer_attrib-name_attrib-gen-attrib $-1 -1 $152 $-1 $84 2 1 1 1 1 1 1 1 1 1 1 1 1 1 0 1 1 1 @8 CUBIT_ID 2 #
face $153 -1 -1 $-1 $154 $155 $6 $-1 $156 reversed single T -120 -75 -5 120 -75 3 F #
loop $-1 -1 -1 $-1 $-1 $157 $84 T 120 -75 -5 120 75 3 unknown #
plane-surface $-1 -1 -1 $-1 120 0 -2.5 -1 0 0 0 0 1 forward_v I I I I #
coedge $-1 -1 -1 $-1 $158 $86 $159 $160 reversed $52 $-1 #
coedge $-1 -1 -1 $-1 $86 $158 $161 $162 forward $52 $-1 #
coedge $-1 -1 -1 $-1 $163 $164 $86 $126 forward $165 $-1 #
edge $166 -1 -1 $-1 $167 -120 $168 120 $86 $169 forward @7 unknown T -120 75 -5 120 75 -5 #
integer_attrib-name_attrib-gen-attrib $-1 -1 $170 $-1 $89 2 1 1 1 1 1 1 1 1 1 1 1 1 1 0 1 1 1 @8 CUBIT_ID 17 #
straight-curve $-1 -1 -1 $-1 -0.5 71.00000297736257 3 -1 0 0 I I #
integer_attrib-name_attrib-gen-attrib $-1 -1 $171 $-1 $91 2 1 1 1 1 1 1 1 1 1 1 1 1 1 0 1 1 1 @8 CUBIT_ID 9 #
straight-curve $-1 -1 -1 $-1 0 69.999999997499998 0 1 0 -0 I I #
simple-snl-attrib $-1 -1 $-1 $92 $57 1 1 1 1 1 1 1 1 1 1 1 1 0 1 0 1 1 1 @17 NEW_SIMPLE_ATTRIB 1 @9 ENTITY_ID 0 3 23 -2147483648 -1 #
integer_attrib-name_attrib-gen-attrib $-1 -1 $172 $-1 $93 2 1 1 1 1 1 1 1 1 1 1 1 1 1 0 1 1 1 @8 CUBIT_ID 16 #
point $-1 -1 -1 $-1 116.00000297736257 71.00000297736257 3 #
integer_attrib-name_attrib-gen-attrib $-1 -1 $173 $-1 $94 2 1 1 1 1 1 1 1 1 1 1 1 1 1 0 1 1 1 @8 CUBIT_ID 10 #
point $-1 -1 -1 $-1 114.999999996 69.999999997499998 0 #
integer_attrib-name_attrib-gen-attrib $-1 -1 $174 $-1 $96 2 1 1 1 1 1 1 1 1 1 1 1 1 1 0 1 1 1 @8 CUBIT_ID 21 #
straight-curve $-1 -1 -1 $-1 -106.59086812139924 61.590868121399211 -25.227320524922405 -0.30151207906601468 0.30151207906601585 0.90453354407372744 I I #
simple-snl-attrib $-1 -1 $-1 $97 $60 1 1 1 1 1 1 1 1 1 1 1 1 0 1 0 1 1 1 @17 NEW_SIMPLE_ATTRIB 1 @9 ENTITY_ID 0 3 12 -2147483648 -1 #
integer_attrib-name_attrib-gen-attrib $-1 -1 $175 $-1 $98 2 1 1 1 1 1 1 1 1 1 1 1 1 1 0 1 1 1 @8 CUBIT_ID 9 #
point $-1 -1 -1 $-1 -114.999999996 69.999999997499998 0 #
simple-snl-attrib $-1 -1 $-1 $100 $62 1 1 1 1 1 1 1 1 1 1 1 1 0 1 0 1 1 1 @17 NEW_SIMPLE_ATTRIB 1 @9 ENTITY_ID 0 3 22 -2147483648 -1 #
integer_attrib-name_attrib-gen-attrib $-1 -1 $176 $-1 $101 2 1 1 1 1 1 1 1 1 1 1 1 1 1 0 1 1 1 @8 CUBIT_ID 15 #
point $-1 -1 -1 $-1 -116.00000297736257 71.00000297736257 3 #
simple-snl-attrib $-1 -1 $-1 $104 $64 1 1 1 1 1 1 1 1 1 1 1 1 0 1 0 1 1 1 @17 NEW_SIMPLE_ATTRIB 1 @9 ENTITY_ID 0 3 14 -2147483648 -1 #
simple-snl-attrib $-1 -1 $-1 $106 $65 1 1 1 1 1 1 1 1 1 1 1 1 0 1 0 1 1 1 @17 NEW_SIMPLE_ATTRIB 1 @9 ENTITY_ID 0 3 12 -2147483648 -1 #
integer_attrib-name_attrib-gen-attrib $-1 -1 $177 $-1 $108 2 1 1 1 1 1 1 1 1 1 1 1 1 1 0 1 1 1 @8 CUBIT_ID 3 #
face $178 -1 -1 $-1 $-1 $165 $6 $-1 $179 reversed single T -120 -75 -5 120 75 -5 F #
plane-surface $-1 -1 -1 $-1 0 0 0 0 0 1 1 0 0 forward_v I I I I #
coedge $-1 -1 -1 $-1 $180 $181 $182 $183 forward $110 $-1 #
simple-snl-attrib $-1 -1 $-1 $112 $75 1 1 1 1 1 1 1 1 1 1 1 1 0 1 0 1 1 1 @17 NEW_SIMPLE_ATTRIB 1 @9 ENTITY_ID 0 3 24 -2147483648 -1 #
simple-snl-attrib $-1 -1 $-1 $114 $76 1 1 1 1 1 1 1 1 1 1 1 1 0 1 0 1 1 1 @17 NEW_SIMPLE_ATTRIB 1 @9 ENTITY_ID 0 3 10 -2147483648 -1 #
simple-snl-attrib $-1 -1 $-1 $119 $84 1 1 1 1 1 1 1 1 1 1 1 1 0 1 0 1 1 1 @17 NEW_SIMPLE_ATTRIB 1 @9 ENTITY_ID 0 3 2 -2147483648 -1 #
integer_attrib-name_attrib-gen-attrib $-1 -1 $184 $-1 $120 2 1 1 1 1 1 1 1 1 1 1 1 1 1 0 1 1 1 @8 CUBIT_ID 5 #
face $185 -1 -1 $-1 $108 $186 $6 $-1 $187 reversed single T -120 -75 -5 -120 75 3 F #
loop $-1 -1 -1 $-1 $-1 $188 $120 T -120 -75 -5 120 -75 3 unknown #
plane-surface $-1 -1 -1 $-1 0 -75 -2.5 0 1 0 0 0 1 forward_v I I I I #
coedge $-1 -1 -1 $-1 $189 $190 $191 $192 forward $121 $-1 #
coedge $-1 -1 -1 $-1 $124 $123 $193 $194 reversed $52 $-1 #
coedge $-1 -1 -1 $-1 $195 $196 $123 $160 forward $186 $-1 #
edge $197 -1 -1 $-1 $198 -5.5 $167 2.5 $123 $199 forward @7 unknown T -120 75 -5 -120 75 3 #
coedge $-1 -1 -1 $-1 $190 $189 $124 $162 reversed $121 $-1 #
edge $200 -1 -1 $-1 $201 -5.5 $168 2.5 $161 $202 forward @7 unknown T 120 75 -5 120 75 3 #
coedge $-1 -1 -1 $-1 $203 $125 $189 $204 forward $165 $-1 #
coedge $-1 -1 -1 $-1 $125 $203 $195 $205 forward $165 $-1 #
loop $-1 -1 -1 $-1 $-1 $203 $147 T -120 -75 -5 120 75 -5 unknown #
integer_attrib-name_attrib-gen-attrib $-1 -1 $206 $-1 $126 2 1 1 1 1 1 1 1 1 1 1 1 1 1 0 1 1 1 @8 CUBIT_ID 16 #
vertex $207 -1 -1 $-1 $126 $208 #
vertex $209 -1 -1 $-1 $204 $210 #
straight-curve $-1 -1 -1 $-1 0 75 -5 1 0 0 I I #
simple-snl-attrib $-1 -1 $-1 $127 $89 1 1 1 1 1 1 1 1 1 1 1 1 0 1 0 1 1 1 @17 NEW_SIMPLE_ATTRIB 1 @9 ENTITY_ID 0 3 17 -2147483648 -1 #
simple-snl-attrib $-1 -1 $-1 $129 $91 1 1 1 1 1 1 1 1 1 1 1 1 0 1 0 1 1 1 @17 NEW_SIMPLE_ATTRIB 1 @9 ENTITY_ID 0 3 9 -2147483648 -1 #
simple-snl-attrib $-1 -1 $-1 $132 $93 1 1 1 1 1 1 1 1 1 1 1 1 0 1 0 1 1 1 @17 NEW_SIMPLE_ATTRIB 1 @9 ENTITY_ID 0 3 16 -2147483648 -1 #
simple-snl-attrib $-1 -1 $-1 $134 $94 1 1 1 1 1 1 1 1 1 1 1 1 0 1 0 1 1 1 @17 NEW_SIMPLE_ATTRIB 1 @9 ENTITY_ID 0 3 10 -2147483648 -1 #
simple-snl-attrib $-1 -1 $-1 $136 $96 1 1 1 1 1 1 1 1 1 1 1 1 0 1 0 1 1 1 @17 NEW_SIMPLE_ATTRIB 1 @9 ENTITY_ID 0 3 21 -2147483648 -1 #
simple-snl-attrib $-1 -1 $-1 $139 $98 1 1 1 1 1 1 1 1 1 1 1 1 0 1 0 1 1 1 @17 NEW_SIMPLE_ATTRIB 1 @9 ENTITY_ID 0 3 9 -2147483648 -1 #
simple-snl-attrib $-1 -1 $-1 $142 $101 1 1 1 1 1 1 1 1 1 1 1 1 0 1 0 1 1 1 @17 NEW_SIMPLE_ATTRIB 1 @9 ENTITY_ID 0 3 15 -2147483648 -1 #
simple-snl-attrib $-1 -1 $-1 $146 $108 1 1 1 1 1 1 1 1 1 1 1 1 0 1 0 1 1 1 @17 NEW_SIMPLE_ATTRIB 1 @9 ENTITY_ID 0 3 3 -2147483648 -1 #
integer_attrib-name_attrib-gen-attrib $-1 -1 $211 $-1 $147 2 1 1 1 1 1 1 1 1 1 1 1 1 1 0 1 1 1 @8 CUBIT_ID 4 #
plane-surface $-1 -1 -1 $-1 0 0 -5 0 0 1 1 0 0 forward_v I I I I #
coedge $-1 -1 -1 $-1 $193 $149 $190 $212 forward $110 $-1 #
coedge $-1 -1 -1 $-1 $149 $193 $196 $213 forward $110 $-1 #
coedge $-1 -1 -1 $-1 $214 $191 $149 $183 reversed $155 $-1 #
edge $215 -1 -1 $-1 $216 -120 $217 120 $182 $218 reversed @7 unknown T -120 -75 3 120 -75 3 #
simple-snl-attrib $-1 -1 $-1 $153 $120 1 1 1 1 1 1 1 1 1 1 1 1 0 1 0 1 1 1 @17 NEW_SIMPLE_ATTRIB 1 @9 ENTITY_ID 0 3 5 -2147483648 -1 #
integer_attrib-name_attrib-gen-attrib $-1 -1 $219 $-1 $154 2 1 1 1 1 1 1 1 1 1 1 1 1 1 0 1 1 1 @8 CUBIT_ID 1 #
loop $-1 -1 -1 $-1 $-1 $159 $154 T -120 -75 -5 -120 75 3 unknown #
plane-surface $-1 -1 -1 $-1 -120 0 -2.5 1 0 0 0 0 -1 forward_v I I I I #
coedge $-1 -1 -1 $-1 $191 $214 $203 $220 reversed $155 $-1 #
coedge $-1 -1 -1 $-1 $161 $157 $163 $204 reversed $121 $-1 #
coedge $-1 -1 -1 $-1 $157 $161 $180 $212 reversed $121 $-1 #
coedge $-1 -1 -1 $-1 $182 $188 $157 $192 reversed $155 $-1 #
edge $221 -1 -1 $-1 $217 -5.5 $222 2.5 $157 $223 forward @7 unknown T 120 -75 -5 120 -75 3 #
coedge $-1 -1 -1 $-1 $181 $180 $158 $194 forward $110 $-1 #
edge $224 -1 -1 $-1 $201 -120 $198 120 $158 $225 reversed @7 unknown T -120 75 3 120 75 3 #
coedge $-1 -1 -1 $-1 $226 $159 $164 $205 reversed $186 $-1 #
coedge $-1 -1 -1 $-1 $159 $226 $181 $213 reversed $186 $-1 #
integer_attrib-name_attrib-gen-attrib $-1 -1 $227 $-1 $160 2 1 1 1 1 1 1 1 1 1 1 1 1 1 0 1 1 1 @8 CUBIT_ID 7 #
vertex $228 -1 -1 $-1 $194 $229 #
straight-curve $-1 -1 -1 $-1 -120 75 -2.5 0 0 -1 I I #
integer_attrib-name_attrib-gen-attrib $-1 -1 $230 $-1 $162 2 1 1 1 1 1 1 1 1 1 1 1 1 1 0 1 1 1 @8 CUBIT_ID 8 #
vertex $231 -1 -1 $-1 $212 $232 #
straight-curve $-1 -1 -1 $-1 120 75 -2.5 0 0 -1 I I #
coedge $-1 -1 -1 $-1 $164 $163 $188 $220 forward $165 $-1 #
edge $233 -1 -1 $-1 $168 -75 $222 75 $189 $234 forward @7 unknown T 120 -75 -5 120 75 -5 #
edge $235 -1 -1 $-1 $236 -75 $167 75 $195 $237 forward @7 unknown T -120 -75 -5 -120 75 -5 #
simple-snl-attrib $-1 -1 $-1 $166 $126 1 1 1 1 1 1 1 1 1 1 1 1 0 1 0 1 1 1 @17 NEW_SIMPLE_ATTRIB 1 @9 ENTITY_ID 0 3 16 -2147483648 -1 #
integer_attrib-name_attrib-gen-attrib $-1 -1 $238 $-1 $167 2 1 1 1 1 1 1 1 1 1 1 1 1 1 0 1 1 1 @8 CUBIT_ID 8 #
point $-1 -1 -1 $-1 -120 75 -5 #
integer_attrib-name_attrib-gen-attrib $-1 -1 $239 $-1 $168 2 1 1 1 1 1 1 1 1 1 1 1 1 1 0 1 1 1 @8 CUBIT_ID 5 #
point $-1 -1 -1 $-1 120 75 -5 #
simple-snl-attrib $-1 -1 $-1 $178 $147 1 1 1 1 1 1 1 1 1 1 1 1 0 1 0 1 1 1 @17 NEW_SIMPLE_ATTRIB 1 @9 ENTITY_ID 0 3 4 -2147483648 -1 #
edge $240 -1 -1 $-1 $217 -75 $201 75 $190 $241 reversed @7 unknown T 120 -75 3 120 75 3 #
edge $242 -1 -1 $-1 $198 -75 $216 75 $196 $243 reversed @7 unknown T -120 -75 3 -120 75 3 #
coedge $-1 -1 -1 $-1 $188 $182 $226 $244 forward $155 $-1 #
integer_attrib-name_attrib-gen-attrib $-1 -1 $245 $-1 $183 2 1 1 1 1 1 1 1 1 1 1 1 1 1 0 1 1 1 @8 CUBIT_ID 14 #
vertex $246 -1 -1 $-1 $213 $247 #
vertex $248 -1 -1 $-1 $212 $249 #
straight-curve $-1 -1 -1 $-1 0 -75 3 -1 0 0 F -10000.000001 F 10000.000001 #
simple-snl-attrib $-1 -1 $-1 $185 $154 1 1 1 1 1 1 1 1 1 1 1 1 0 1 0 1 1 1 @17 NEW_SIMPLE_ATTRIB 1 @9 ENTITY_ID 0 3 1 -2147483648 -1 #
edge $250 -1 -1 $-1 $222 -120 $236 120 $188 $251 forward @7 unknown T -120 -75 -5 120 -75 -5 #
integer_attrib-name_attrib-gen-attrib $-1 -1 $252 $-1 $192 2 1 1 1 1 1 1 1 1 1 1 1 1 1 0 1 1 1 @8 CUBIT_ID 6 #
vertex $253 -1 -1 $-1 $192 $254 #
straight-curve $-1 -1 -1 $-1 120 -75 -2.5 0 0 -1 I I #
integer_attrib-name_attrib-gen-attrib $-1 -1 $255 $-1 $194 2 1 1 1 1 1 1 1 1 1 1 1 1 1 0 1 1 1 @8 CUBIT_ID 15 #
straight-curve $-1 -1 -1 $-1 0 75 3 1 0 -0 F -10000.000001 F 10000.000001 #
coedge $-1 -1 -1 $-1 $196 $195 $214 $244 reversed $186 $-1 #
simple-snl-attrib $-1 -1 $-1 $197 $160 1 1 1 1 1 1 1 1 1 1 1 1 0 1 0 1 1 1 @17 NEW_SIMPLE_ATTRIB 1 @9 ENTITY_ID 0 3 7 -2147483648 -1 #
integer_attrib-name_attrib-gen-attrib $-1 -1 $256 $-1 $198 2 1 1 1 1 1 1 1 1 1 1 1 1 1 0 1 1 1 @8 CUBIT_ID 3 #
point $-1 -1 -1 $-1 -120 75 3 #
simple-snl-attrib $-1 -1 $-1 $200 $162 1 1 1 1 1 1 1 1 1 1 1 1 0 1 0 1 1 1 @17 NEW_SIMPLE_ATTRIB 1 @9 ENTITY_ID 0 3 8 -2147483648 -1 #
integer_attrib-name_attrib-gen-attrib $-1 -1 $257 $-1 $201 2 1 1 1 1 1 1 1 1 1 1 1 1 1 0 1 1 1 @8 CUBIT_ID 2 #
point $-1 -1 -1 $-1 120 75 3 #
integer_attrib-name_attrib-gen-attrib $-1 -1 $258 $-1 $204 2 1 1 1 1 1 1 1 1 1 1 1 1 1 0 1 1 1 @8 CUBIT_ID 3 #
straight-curve $-1 -1 -1 $-1 120 0 -5 0 -1 0 I I #
integer_attrib-name_attrib-gen-attrib $-1 -1 $259 $-1 $205 2 1 1 1 1 1 1 1 1 1 1 1 1 1 0 1 1 1 @8 CUBIT_ID 4 #
vertex $260 -1 -1 $-1 $205 $261 #
straight-curve $-1 -1 -1 $-1 -120 0 -5 0 1 0 I I #
simple-snl-attrib $-1 -1 $-1 $207 $167 1 1 1 1 1 1 1 1 1 1 1 1 0 1 0 1 1 1 @17 NEW_SIMPLE_ATTRIB 1 @9 ENTITY_ID 0 3 8 -2147483648 -1 #
simple-snl-attrib $-1 -1 $-1 $209 $168 1 1 1 1 1 1 1 1 1 1 1 1 0 1 0 1 1 1 @17 NEW_SIMPLE_ATTRIB 1 @9 ENTITY_ID 0 3 5 -2147483648 -1 #
integer_attrib-name_attrib-gen-attrib $-1 -1 $262 $-1 $212 2 1 1 1 1 1 1 1 1 1 1 1 1 1 0 1 1 1 @8 CUBIT_ID 1 #
straight-curve $-1 -1 -1 $-1 120 0 3 0 -1 0 F -10000.000001 F 10000.000001 #
integer_attrib-name_attrib-gen-attrib $-1 -1 $263 $-1 $213 2 1 1 1 1 1 1 1 1 1 1 1 1 1 0 1 1 1 @8 CUBIT_ID 2 #
straight-curve $-1 -1 -1 $-1 -120 0 3 0 1 0 F -10000.000001 F 10000.000001 #
edge $264 -1 -1 $-1 $216 -5.5 $236 2.5 $226 $265 forward @7 unknown T -120 -75 -5 -120 -75 3 #
simple-snl-attrib $-1 -1 $-1 $215 $183 1 1 1 1 1 1 1 1 1 1 1 1 0 1 0 1 1 1 @17 NEW_SIMPLE_ATTRIB 1 @9 ENTITY_ID 0 3 14 -2147483648 -1 #
integer_attrib-name_attrib-gen-attrib $-1 -1 $266 $-1 $216 2 1 1 1 1 1 1 1 1 1 1 1 1 1 0 1 1 1 @8 CUBIT_ID 4 #
point $-1 -1 -1 $-1 -120 -75 3 #
integer_attrib-name_attrib-gen-attrib $-1 -1 $267 $-1 $217 2 1 1 1 1 1 1 1 1 1 1 1 1 1 0 1 1 1 @8 CUBIT_ID 1 #
point $-1 -1 -1 $-1 120 -75 3 #
integer_attrib-name_attrib-gen-attrib $-1 -1 $268 $-1 $220 2 1 1 1 1 1 1 1 1 1 1 1 1 1 0 1 1 1 @8 CUBIT_ID 13 #
straight-curve $-1 -1 -1 $-1 0 -75 -5 -1 0 0 I I #
simple-snl-attrib $-1 -1 $-1 $221 $192 1 1 1 1 1 1 1 1 1 1 1 1 0 1 0 1 1 1 @17 NEW_SIMPLE_ATTRIB 1 @9 ENTITY_ID 0 3 6 -2147483648 -1 #
integer_attrib-name_attrib-gen-attrib $-1 -1 $269 $-1 $222 2 1 1 1 1 1 1 1 1 1 1 1 1 1 0 1 1 1 @8 CUBIT_ID 6 #
point $-1 -1 -1 $-1 120 -75 -5 #
simple-snl-attrib $-1 -1 $-1 $224 $194 1 1 1 1 1 1 1 1 1 1 1 1 0 1 0 1 1 1 @17 NEW_SIMPLE_ATTRIB 1 @9 ENTITY_ID 0 3 15 -2147483648 -1 #
simple-snl-attrib $-1 -1 $-1 $228 $198 1 1 1 1 1 1 1 1 1 1 1 1 0 1 0 1 1 1 @17 NEW_SIMPLE_ATTRIB 1 @9 ENTITY_ID 0 3 3 -2147483648 -1 #
simple-snl-attrib $-1 -1 $-1 $231 $201 1 1 1 1 1 1 1 1 1 1 1 1 0 1 0 1 1 1 @17 NEW_SIMPLE_ATTRIB 1 @9 ENTITY_ID 0 3 2 -2147483648 -1 #
simple-snl-attrib $-1 -1 $-1 $233 $204 1 1 1 1 1 1 1 1 1 1 1 1 0 1 0 1 1 1 @17 NEW_SIMPLE_ATTRIB 1 @9 ENTITY_ID 0 3 3 -2147483648 -1 #
simple-snl-attrib $-1 -1 $-1 $235 $205 1 1 1 1 1 1 1 1 1 1 1 1 0 1 0 1 1 1 @17 NEW_SIMPLE_ATTRIB 1 @9 ENTITY_ID 0 3 4 -2147483648 -1 #
integer_attrib-name_attrib-gen-attrib $-1 -1 $270 $-1 $236 2 1 1 1 1 1 1 1 1 1 1 1 1 1 0 1 1 1 @8 CUBIT_ID 7 #
point $-1 -1 -1 $-1 -120 -75 -5 #
simple-snl-attrib $-1 -1 $-1 $240 $212 1 1 1 1 1 1 1 1 1 1 1 1 0 1 0 1 1 1 @17 NEW_SIMPLE_ATTRIB 1 @9 ENTITY_ID 0 3 1 -2147483648 -1 #
simple-snl-attrib $-1 -1 $-1 $242 $213 1 1 1 1 1 1 1 1 1 1 1 1 0 1 0 1 1 1 @17 NEW_SIMPLE_ATTRIB 1 @9 ENTITY_ID 0 3 2 -2147483648 -1 #
integer_attrib-name_attrib-gen-attrib $-1 -1 $271 $-1 $244 2 1 1 1 1 1 1 1 1 1 1 1 1 1 0 1 1 1 @8 CUBIT_ID 5 #
straight-curve $-1 -1 -1 $-1 -120 -75 -2.5 0 0 -1 I I #
simple-snl-attrib $-1 -1 $-1 $246 $216 1 1 1 1 1 1 1 1 1 1 1 1 0 1 0 1 1 1 @17 NEW_SIMPLE_ATTRIB 1 @9 ENTITY_ID 0 3 4 -2147483648 -1 #
simple-snl-attrib $-1 -1 $-1 $248 $217 1 1 1 1 1 1 1 1 1 1 1 1 0 1 0 1 1 1 @17 NEW_SIMPLE_ATTRIB 1 @9 ENTITY_ID 0 3 1 -2147483648 -1 #
simple-snl-attrib $-1 -1 $-1 $250 $220 1 1 1 1 1 1 1 1 1 1 1 1 0 1 0 1 1 1 @17 NEW_SIMPLE_ATTRIB 1 @9 ENTITY_ID 0 3 13 -2147483648 -1 #
simple-snl-attrib $-1 -1 $-1 $253 $222 1 1 1 1 1 1 1 1 1 1 1 1 0 1 0 1 1 1 @17 NEW_SIMPLE_ATTRIB 1 @9 ENTITY_ID 0 3 6 -2147483648 -1 #
simple-snl-attrib $-1 -1 $-1 $260 $236 1 1 1 1 1 1 1 1 1 1 1 1 0 1 0 1 1 1 @17 NEW_SIMPLE_ATTRIB 1 @9 ENTITY_ID 0 3 7 -2147483648 -1 #
simple-snl-attrib $-1 -1 $-1 $264 $244 1 1 1 1 1 1 1 1 1 1 1 1 0 1 0 1 1 1 @17 NEW_SIMPLE_ATTRIB 1 @9 ENTITY_ID 0 3 5 -2147483648 -1 #
End-of-ACIS-data 