2800 0 1 0           
10 Cubit 15.6 19 ACIS 28.0.2 Unknown 24 Sat Sep 19 01:22:30 2020 
1 9.9999999999999995e-07 1e-10 
T @77 6A_W2F9CJF3N7BBKNCND_VSWC5RBJZQDD88CJ887UANKNG53BADMN869KA_MQ8QDFAQKF4PHYCMKK 
body $1 -1 -1 $-1 0 $2 $-1 $-1 F #
integer_attrib-name_attrib-gen-attrib $-1 -1 $-1 $-1 $0 2 1 1 1 1 1 1 1 1 1 1 1 1 1 0 1 1 1 @8 CUBIT_ID 1 #
lump $3 -1 -1 $-1 $-1 $4 $0 T -119.00000000000004 -1.1102230246251565e-16 -1.3877787807814457e-17 118.99999999999999 9.9999999999999982 1.857142857142857 #
integer_attrib-name_attrib-gen-attrib $-1 -1 $-1 $-1 $2 2 1 1 1 1 1 1 1 1 1 1 1 1 1 0 1 1 1 @8 CUBIT_ID 1 #
shell $-1 -1 -1 $-1 $-1 $-1 $5 $-1 $2 T -119.00000000000004 -1.1102230246251565e-16 -1.3877787807814457e-17 118.99999999999999 9.9999999999999982 1.857142857142857 #
face $6 -1 -1 $-1 $7 $8 $4 $-1 $9 forward single T -119.00000000000004 -1.1102230246251565e-16 -1.3877787807814457e-17 118.99999999999999 9.9999999999999982 1.857142857142857 T 5.0990195135927845 15.297058540778353 0 238 #
integer_attrib-name_attrib-gen-attrib $-1 -1 $-1 $-1 $5 2 1 1 1 1 1 1 1 1 1 1 1 1 1 0 1 1 1 @8 CUBIT_ID 2 #
face $10 -1 -1 $-1 $11 $12 $4 $-1 $13 forward single T -119.00000000000001 0 6.9388939039072284e-17 118.99999999999999 9.9999999999999982 1.3877787807814457e-16 T -4.9999999999999991 4.9999999999999991 0 238 #
loop $-1 -1 -1 $-1 $-1 $14 $5 T -119.00000000000004 -1.1102230246251565e-16 -1.3877787807814457e-17 118.99999999999999 9.9999999999999982 1.857142857142857 unknown #
spline-surface $-1 -1 -1 $-1 forward { sumsur 0 
	intcurve forward { exactcur 1 full nubs 3 open 5 
	0 3 5.0990195135927845 1 10.198039027185569 1 15.297058540778353 1 20.396078054371138 3 
	119 -5 1 
	119 -3.333333333333333 0.42857142857142855 
	118.99999999999999 0 -0.71428571428571419 
	118.99999999999996 4.9999999999999991 1.857142857142857 
	118.99999999999999 9.9999999999999982 -0.71428571428571408 
	119 13.333333333333332 0.4285714285714286 
	119 15 1 
	0 
	null_surface 
	null_surface 
	nullbs 
	nullbs 
	-1 
	-1 
	I I 
	0 
	0 
	3 5.0990195135927845 10.198039027185569 15.297058540778353 
	
	-1 
	none F F 1 F 0 } I I 
	straight 118.99999999999999 0 6.9388939039072284e-17 -1 0 0 I I 
	118.99999999999999 0 6.9388939039072284e-17 
	none F 5.0990195135927845 F 15.297058540778353 F 0 F 238 OPEN OPEN NON_SINGULAR NON_SINGULAR 
	0 
	0 
	1 10.198039027185569 
	0 
	0 
	0 
	} I I I I #
integer_attrib-name_attrib-gen-attrib $-1 -1 $-1 $-1 $7 2 1 1 1 1 1 1 1 1 1 1 1 1 1 0 1 1 1 @8 CUBIT_ID 3 #
face $15 -1 -1 $-1 $16 $17 $4 $-1 $18 reversed single T -119.00000000000004 0 6.9388939039072284e-17 -119.00000000000001 9.9999999999999982 1.857142857142857 F #
loop $-1 -1 -1 $-1 $-1 $19 $7 T -119.00000000000001 0 6.9388939039072284e-17 118.99999999999999 9.9999999999999982 1.3877787807814457e-16 unknown #
plane-surface $-1 -1 -1 $-1 118.99999999999999 4.9999999999999991 1.0408340855860843e-16 0 6.9388939039072299e-18 -1 -0 -1 -6.9388939039072299e-18 forward_v I I I I #
coedge $-1 -1 -1 $-1 $20 $21 $22 $23 forward $8 $24 #
integer_attrib-name_attrib-gen-attrib $-1 -1 $25 $-1 $11 2 1 1 1 1 1 1 1 1 1 1 1 1 1 0 1 1 1 @8 CUBIT_ID 1 #
face $26 -1 -1 $-1 $-1 $27 $4 $-1 $28 forward single T 118.99999999999996 -1.1102230246251565e-16 -1.3877787807814457e-17 118.99999999999999 9.9999999999999982 1.857142857142857 F #
loop $-1 -1 -1 $-1 $-1 $22 $11 T -119.00000000000004 0 6.9388939039072284e-17 -119.00000000000001 9.9999999999999982 1.857142857142857 unknown #
plane-surface $-1 -1 -1 $-1 -119.00000000000001 4.9999999999999991 0.24555216744653077 1 -1.4858042721773538e-31 1.6245841882322439e-14 1.6245841882322439e-14 0 -1 forward_v I I I I #
coedge $-1 -1 -1 $-1 $29 $30 $31 $32 forward $12 $-1 #
coedge $-1 -1 -1 $-1 $33 $14 $30 $34 reversed $8 $35 #
coedge $-1 -1 -1 $-1 $14 $33 $29 $36 forward $8 $37 #
coedge $-1 -1 -1 $-1 $31 $31 $14 $23 reversed $17 $-1 #
edge $38 -1 -1 $-1 $39 -15.297058540778353 $40 -5.0990195135927845 $14 $41 forward @7 unknown T -119.00000000000004 0 6.9388939039072284e-17 -119.00000000000001 9.9999999999999982 1.857142857142857 #
pcurve $-1 -1 -1 $-1 0 forward { exppc 2 nubs 1 open 2 
	-15.297058540778353 1 -5.0990195135927845 1 
	15.297058540778353 238 
	5.0990195135927845 238 
	0 
	-1 
	spline forward { ref 0 } I I I I 
	} 0 0 #
simple-snl-attrib $-1 -1 $-1 $15 $11 1 1 1 1 1 1 1 1 1 1 1 1 0 1 0 1 1 1 @17 NEW_SIMPLE_ATTRIB 2 @11 ENTITY_NAME @5 xsect 0 0 #
integer_attrib-name_attrib-gen-attrib $-1 -1 $42 $-1 $16 2 1 1 1 1 1 1 1 1 1 1 1 1 1 0 1 1 1 @8 CUBIT_ID 4 #
loop $-1 -1 -1 $-1 $-1 $43 $16 T 118.99999999999996 -1.1102230246251565e-16 -1.3877787807814457e-17 118.99999999999999 9.9999999999999982 1.857142857142857 unknown #
plane-surface $-1 -1 -1 $-1 118.99999999999999 4.9999999999999991 0.24555216744653077 1 -1.4858042721773538e-31 1.6245841882322439e-14 1.6245841882322439e-14 0 -1 forward_v I I I I #
coedge $-1 -1 -1 $-1 $44 $19 $21 $36 reversed $12 $-1 #
coedge $-1 -1 -1 $-1 $19 $44 $20 $34 forward $12 $-1 #
coedge $-1 -1 -1 $-1 $22 $22 $19 $32 reversed $17 $-1 #
edge $45 -1 -1 $-1 $40 0 $39 9.9999999999999982 $19 $46 forward @7 unknown T -119.00000000000001 0 6.9388939039072284e-17 -119.00000000000001 9.9999999999999982 1.3877787807814457e-16 #
coedge $-1 -1 -1 $-1 $21 $20 $47 $48 forward $8 $49 #
edge $50 -1 -1 $-1 $51 0 $40 238 $30 $52 forward @7 unknown T -119.00000000000001 0 6.9388939039072284e-17 118.99999999999999 0 6.9388939039072284e-17 #
pcurve $-1 -1 -1 $-1 0 forward { exppc 3 nubs 1 open 2 
	-238 1 -0 1 
	5.0990195135927845 238 
	5.0990195135927845 0 
	0 
	-1 
	spline forward { ref 0 } I I I I 
	} 0 0 #
edge $53 -1 -1 $-1 $54 0 $39 238 $21 $55 forward @7 unknown T -119.00000000000001 9.9999999999999982 1.3877787807814457e-16 118.99999999999999 9.9999999999999982 1.3877787807814457e-16 #
pcurve $-1 -1 -1 $-1 0 forward { exppc 4 nubs 1 open 2 
	0 1 238 1 
	15.297058540778353 0 
	15.297058540778353 238 
	0 
	-1 
	spline forward { ref 0 } I I I I 
	} 0 0 #
integer_attrib-name_attrib-gen-attrib $-1 -1 $-1 $-1 $23 2 1 1 1 1 1 1 1 1 1 1 1 1 1 0 1 1 1 @8 CUBIT_ID 3 #
vertex $56 -1 -1 $-1 $36 $57 #
vertex $58 -1 -1 $-1 $34 $59 #
intcurve-curve $-1 -1 -1 $-1 reversed { exactcur 5 full nubs 3 open 3 
	5.0990195135927845 3 10.198039027185569 1 15.297058540778353 3 
	-119.00000000000001 0 6.9388939039072284e-17 
	-119.00000000000003 1.6666666666666663 0.14285714285714279 
	-119.00000000000004 4.9999999999999991 1.857142857142857 
	-119.00000000000003 8.3333333333333321 0.14285714285714302 
	-119.00000000000001 9.9999999999999982 1.3877787807814457e-16 
	0 
	null_surface 
	null_surface 
	nullbs 
	nullbs 
	-1 
	-1 
	I I 
	0 
	0 
	1 10.198039027185569 
	
	-1 
	none F F 1 F 0 } I I #
simple-snl-attrib $-1 -1 $-1 $26 $16 1 1 1 1 1 1 1 1 1 1 1 1 0 1 0 1 1 1 @17 NEW_SIMPLE_ATTRIB 2 @11 ENTITY_NAME @7 xsect@A 0 0 #
coedge $-1 -1 -1 $-1 $47 $47 $44 $60 forward $27 $-1 #
coedge $-1 -1 -1 $-1 $30 $29 $43 $60 reversed $12 $-1 #
integer_attrib-name_attrib-gen-attrib $-1 -1 $-1 $-1 $32 2 1 1 1 1 1 1 1 1 1 1 1 1 1 0 1 1 1 @8 CUBIT_ID 6 #
straight-curve $-1 -1 -1 $-1 -119.00000000000001 0 6.9388939039072284e-17 0 1 6.9388939039072299e-18 I I #
coedge $-1 -1 -1 $-1 $43 $43 $33 $48 reversed $27 $-1 #
edge $61 -1 -1 $-1 $51 5.0990195135927845 $54 15.297058540778353 $33 $62 forward @7 unknown T 118.99999999999996 -1.1102230246251565e-16 -1.3877787807814457e-17 118.99999999999999 9.9999999999999982 1.857142857142857 #
pcurve $-1 -1 -1 $-1 0 forward { exppc 6 nubs 1 open 2 
	5.0990195135927845 1 15.297058540778353 1 
	5.0990195135927845 0 
	15.297058540778353 0 
	0 
	-1 
	spline forward { ref 0 } I I I I 
	} 0 0 #
integer_attrib-name_attrib-gen-attrib $-1 -1 $-1 $-1 $34 2 1 1 1 1 1 1 1 1 1 1 1 1 1 0 1 1 1 @8 CUBIT_ID 4 #
vertex $63 -1 -1 $-1 $60 $64 #
straight-curve $-1 -1 -1 $-1 118.99999999999999 0 6.9388939039072284e-17 -1 0 0 I I #
integer_attrib-name_attrib-gen-attrib $-1 -1 $-1 $-1 $36 2 1 1 1 1 1 1 1 1 1 1 1 1 1 0 1 1 1 @8 CUBIT_ID 5 #
vertex $65 -1 -1 $-1 $60 $66 #
straight-curve $-1 -1 -1 $-1 118.99999999999999 9.9999999999999982 1.3877787807814457e-16 -1 0 0 I I #
integer_attrib-name_attrib-gen-attrib $-1 -1 $-1 $-1 $39 2 1 1 1 1 1 1 1 1 1 1 1 1 1 0 1 1 1 @8 CUBIT_ID 3 #
point $-1 -1 -1 $-1 -119.00000000000001 9.9999999999999982 1.3877787807814457e-16 #
integer_attrib-name_attrib-gen-attrib $-1 -1 $-1 $-1 $40 2 1 1 1 1 1 1 1 1 1 1 1 1 1 0 1 1 1 @8 CUBIT_ID 4 #
point $-1 -1 -1 $-1 -119.00000000000001 0 6.9388939039072284e-17 #
edge $67 -1 -1 $-1 $51 0 $54 9.9999999999999982 $44 $68 forward @7 unknown T 118.99999999999999 0 6.9388939039072284e-17 118.99999999999999 9.9999999999999982 1.3877787807814457e-16 #
integer_attrib-name_attrib-gen-attrib $-1 -1 $69 $-1 $48 2 1 1 1 1 1 1 1 1 1 1 1 1 1 0 1 1 1 @8 CUBIT_ID 1 #
intcurve-curve $-1 -1 -1 $-1 forward { exactcur 7 full nubs 3 open 5 
	0 3 5.0990195135927845 1 10.198039027185569 1 15.297058540778353 1 20.396078054371138 3 
	119 -5 1 
	119 -3.333333333333333 0.42857142857142855 
	118.99999999999999 0 -0.71428571428571419 
	118.99999999999996 4.9999999999999991 1.857142857142857 
	118.99999999999999 9.9999999999999982 -0.71428571428571408 
	119 13.333333333333332 0.4285714285714286 
	119 15 1 
	0 
	null_surface 
	null_surface 
	nullbs 
	nullbs 
	-1 
	-1 
	I I 
	0 
	0 
	3 5.0990195135927845 10.198039027185569 15.297058540778353 
	
	-1 
	none F F 1 F 0 } I I #
integer_attrib-name_attrib-gen-attrib $-1 -1 $-1 $-1 $51 2 1 1 1 1 1 1 1 1 1 1 1 1 1 0 1 1 1 @8 CUBIT_ID 1 #
point $-1 -1 -1 $-1 118.99999999999999 0 6.9388939039072284e-17 #
integer_attrib-name_attrib-gen-attrib $-1 -1 $-1 $-1 $54 2 1 1 1 1 1 1 1 1 1 1 1 1 1 0 1 1 1 @8 CUBIT_ID 2 #
point $-1 -1 -1 $-1 118.99999999999999 9.9999999999999982 1.3877787807814457e-16 #
integer_attrib-name_attrib-gen-attrib $-1 -1 $70 $-1 $60 2 1 1 1 1 1 1 1 1 1 1 1 1 1 0 1 1 1 @8 CUBIT_ID 2 #
straight-curve $-1 -1 -1 $-1 118.99999999999999 0 6.9388939039072284e-17 0 1 6.9388939039072299e-18 I I #
simple-snl-attrib $-1 -1 $-1 $61 $48 1 1 1 1 1 1 1 1 1 1 1 1 0 1 0 1 1 1 @17 NEW_SIMPLE_ATTRIB 3 @11 ENTITY_NAME @8 tcurve@B @3 foo 0 0 #
simple-snl-attrib $-1 -1 $-1 $67 $60 1 1 1 1 1 1 1 1 1 1 1 1 0 1 0 1 1 1 @17 NEW_SIMPLE_ATTRIB 2 @11 ENTITY_NAME @3 tc2 0 0 #
End-of-ACIS-data 