2800 0 1 0           
10 Cubit 15.6 19 ACIS 28.0.2 Unknown 24 Fri Sep 25 07:28:39 2020 
1 9.9999999999999995e-07 1e-10 
T @77 MRQGV87AQ7FVRPQ8H9AUQT34A7FMP4Q5WCTUH4RAY88MQ67A7CT3MMN2QCK4Q85V6ASBN6QAYAR4G 
body $1 -1 -1 $-1 0 $2 $-1 $3 F #
integer_attrib-name_attrib-gen-attrib $-1 -1 $-1 $-1 $0 2 1 1 1 1 1 1 1 1 1 1 1 1 1 0 1 1 1 @8 CUBIT_ID 1 #
lump $4 -1 -1 $-1 $-1 $5 $0 F #
transform $-1 -1 1 0 0 0 1 0 0 0 1 0 0 0 1 no_rotate no_reflect no_shear #
integer_attrib-name_attrib-gen-attrib $-1 -1 $-1 $-1 $2 2 1 1 1 1 1 1 1 1 1 1 1 1 1 0 1 1 1 @8 CUBIT_ID 1 #
shell $-1 -1 -1 $-1 $-1 $-1 $6 $-1 $2 F #
face $7 -1 -1 $-1 $8 $9 $5 $-1 $10 forward single T -30.200000000000003 -14.200000000000003 -14.600000000000003 -1.7999999999999972 14.200000000000003 -14.300000000000002 F #
integer_attrib-name_attrib-gen-attrib $-1 -1 $-1 $-1 $6 2 1 1 1 1 1 1 1 1 1 1 1 1 1 0 1 1 1 @8 CUBIT_ID 18 #
face $11 -1 -1 $-1 $12 $13 $5 $-1 $14 forward single F F #
loop $-1 -1 -1 $-1 $15 $16 $6 T -30.200000000000003 -14.200000000000003 -14.600000000000003 -1.7999999999999972 14.200000000000003 -14.600000000000003 unknown #
cone-surface $-1 -1 -1 $-1 -16 0 -14.600000000000003 0 0 1 -14.200000000000001 -0 -0 1 I I -0.70710678118654746 0.70710678118654746 14.200000000000001 forward I I I I #
integer_attrib-name_attrib-gen-attrib $-1 -1 $-1 $-1 $8 2 1 1 1 1 1 1 1 1 1 1 1 1 1 0 1 1 1 @8 CUBIT_ID 11 #
face $17 -1 -1 $-1 $18 $19 $5 $-1 $20 forward single F F #
loop $-1 -1 -1 $-1 $21 $22 $8 T -29.900000000000002 -13.900000000000002 -5.7000000000000011 -2.0999999999999979 13.900000000000002 -5.7000000000000011 unknown #
cone-surface $-1 -1 -1 $-1 -16 0 -10.000000000000002 0 0 1 13.9 0 4.4408920985006262e-16 1 I I 0 1 13.9 forward I I I I #
loop $-1 -1 -1 $-1 $-1 $23 $6 T -29.899999999999999 -13.899999999999999 -14.300000000000002 -2.1000000000000014 13.899999999999999 -14.300000000000002 unknown #
coedge $-1 -1 -1 $-1 $16 $16 $24 $25 forward $9 $-1 #
integer_attrib-name_attrib-gen-attrib $-1 -1 $-1 $-1 $12 2 1 1 1 1 1 1 1 1 1 1 1 1 1 0 1 1 1 @8 CUBIT_ID 10 #
face $26 -1 -1 $-1 $27 $28 $5 $-1 $29 forward single T -30.200000000000003 -14.200000000000003 -15.300000000000001 -1.7999999999999972 14.200000000000003 -15 F #
loop $-1 -1 -1 $-1 $30 $31 $12 T -30.400000000000002 -14.400000000000002 -14.600000000000005 -1.5999999999999979 14.400000000000002 -14.600000000000001 unknown #
plane-surface $-1 -1 -1 $-1 -16 0 -14.600000000000003 0 0 1 1 0 0 forward_v I I I I #
loop $-1 -1 -1 $-1 $-1 $32 $8 F unknown #
coedge $-1 -1 -1 $-1 $22 $22 $33 $34 reversed $13 $-1 #
coedge $-1 -1 -1 $-1 $23 $23 $32 $35 forward $15 $-1 #
coedge $-1 -1 -1 $-1 $24 $24 $16 $25 reversed $30 $-1 #
edge $36 -1 -1 $-1 $37 -3.1415926535897931 $37 3.1415926535897931 $24 $38 forward @7 unknown T -30.200000000000003 -14.200000000000003 -14.600000000000003 -1.7999999999999972 14.200000000000003 -14.600000000000003 #
integer_attrib-name_attrib-gen-attrib $-1 -1 $-1 $-1 $18 2 1 1 1 1 1 1 1 1 1 1 1 1 1 0 1 1 1 @8 CUBIT_ID 19 #
face $39 -1 -1 $-1 $40 $41 $5 $-1 $14 forward single T -29.899999999999999 -13.899999999999999 -19.500000000000004 -2.1000000000000014 13.899999999999999 -15.300000000000001 F #
loop $-1 -1 -1 $-1 $42 $43 $18 T -30.200000000000003 -14.200000000000003 -15 -1.7999999999999972 14.200000000000003 -15 unknown #
cone-surface $-1 -1 -1 $-1 -16 0 -15 0 0 -1 -14.200000000000001 -0 -0 1 I I -0.70710678118654746 0.70710678118654746 14.200000000000001 forward I I I I #
loop $-1 -1 -1 $-1 $-1 $24 $12 F unknown #
coedge $-1 -1 -1 $-1 $31 $31 $44 $45 forward $19 $-1 #
coedge $-1 -1 -1 $-1 $32 $32 $23 $35 reversed $21 $-1 #
coedge $-1 -1 -1 $-1 $33 $33 $22 $34 forward $46 $-1 #
edge $47 -1 -1 $-1 $48 -3.1415926535897931 $48 3.1415926535897931 $22 $49 forward @7 unknown T -29.900000000000002 -13.900000000000002 -5.7000000000000011 -2.0999999999999979 13.900000000000002 -5.7000000000000011 #
edge $50 -1 -1 $-1 $51 -3.1415926535897931 $51 3.1415926535897931 $32 $52 forward @7 unknown T -29.899999999999999 -13.899999999999999 -14.300000000000002 -2.1000000000000014 13.899999999999999 -14.300000000000002 #
integer_attrib-name_attrib-gen-attrib $-1 -1 $-1 $-1 $25 2 1 1 1 1 1 1 1 1 1 1 1 1 1 0 1 1 1 @8 CUBIT_ID 19 #
vertex $53 -1 -1 $-1 $25 $54 #
ellipse-curve $-1 -1 -1 $-1 -16 0 -14.600000000000003 0 0 1 -14.200000000000003 0 0 1 I I #
integer_attrib-name_attrib-gen-attrib $-1 -1 $-1 $-1 $27 2 1 1 1 1 1 1 1 1 1 1 1 1 1 0 1 1 1 @8 CUBIT_ID 12 #
face $55 -1 -1 $-1 $56 $57 $5 $-1 $58 forward single T -30.400000000000002 -14.400000000000002 -15.000000000000004 -1.5999999999999979 14.400000000000002 -15 F #
loop $-1 -1 -1 $-1 $59 $60 $27 T -29.899999999999999 -13.899999999999999 -19.500000000000004 -2.1000000000000014 13.899999999999999 -19.500000000000004 unknown #
loop $-1 -1 -1 $-1 $-1 $61 $18 T -29.899999999999999 -13.899999999999999 -15.300000000000001 -2.1000000000000014 13.899999999999999 -15.300000000000001 unknown #
coedge $-1 -1 -1 $-1 $43 $43 $62 $63 forward $28 $-1 #
coedge $-1 -1 -1 $-1 $44 $44 $31 $45 reversed $64 $-1 #
edge $65 -1 -1 $-1 $66 0 $66 6.2831853071795862 $31 $67 forward @7 unknown T -30.400000000000002 -14.400000000000002 -14.600000000000005 -1.5999999999999979 14.400000000000002 -14.600000000000001 #
loop $-1 -1 -1 $-1 $-1 $33 $68 T -29.900000000000002 -13.900000000000002 -5.7000000000000011 -2.0999999999999979 13.900000000000002 -5.7000000000000011 unknown #
integer_attrib-name_attrib-gen-attrib $-1 -1 $-1 $-1 $34 2 1 1 1 1 1 1 1 1 1 1 1 1 1 0 1 1 1 @8 CUBIT_ID 21 #
vertex $69 -1 -1 $-1 $34 $70 #
ellipse-curve $-1 -1 -1 $-1 -16 0 -5.7000000000000011 -0 -0 1 -13.900000000000002 0 0 1 I I #
integer_attrib-name_attrib-gen-attrib $-1 -1 $-1 $-1 $35 2 1 1 1 1 1 1 1 1 1 1 1 1 1 0 1 1 1 @8 CUBIT_ID 20 #
vertex $71 -1 -1 $-1 $35 $72 #
ellipse-curve $-1 -1 -1 $-1 -16 0 -14.300000000000002 -0 -0 -1 -13.899999999999999 0 0 1 I I #
integer_attrib-name_attrib-gen-attrib $-1 -1 $-1 $-1 $37 2 1 1 1 1 1 1 1 1 1 1 1 1 1 0 1 1 1 @8 CUBIT_ID 18 #
point $-1 -1 -1 $-1 -1.7999999999999972 1.7389984547892415e-15 -14.600000000000003 #
integer_attrib-name_attrib-gen-attrib $-1 -1 $-1 $-1 $40 2 1 1 1 1 1 1 1 1 1 1 1 1 1 0 1 1 1 @8 CUBIT_ID 9 #
face $73 -1 -1 $-1 $74 $75 $5 $-1 $76 forward single T -30.200000000000003 -14.200000000000003 -5.0000000000000027 -1.7999999999999972 14.200000000000003 -4.7000000000000028 F #
loop $-1 -1 -1 $-1 $77 $78 $40 T -30.400000000000002 -14.400000000000002 -15.000000000000004 -1.5999999999999979 14.400000000000002 -15 unknown #
plane-surface $-1 -1 -1 $-1 -16 0 -15 0 0 -1 -1 0 0 forward_v I I I I #
loop $-1 -1 -1 $-1 $-1 $79 $27 T -29.899999999999999 -13.899999999999999 -15.300000000000001 -2.1000000000000014 13.899999999999999 -15.300000000000001 unknown #
coedge $-1 -1 -1 $-1 $60 $60 $80 $81 reversed $41 $-1 #
coedge $-1 -1 -1 $-1 $61 $61 $79 $82 forward $42 $-1 #
coedge $-1 -1 -1 $-1 $62 $62 $43 $63 reversed $77 $-1 #
edge $83 -1 -1 $-1 $84 -3.1415926535897931 $84 3.1415926535897931 $62 $85 forward @7 unknown T -30.200000000000003 -14.200000000000003 -15 -1.7999999999999972 14.200000000000003 -15 #
loop $-1 -1 -1 $-1 $-1 $44 $86 T -30.400000000000002 -14.400000000000002 -14.600000000000005 -1.5999999999999979 14.400000000000002 -14.600000000000001 unknown #
integer_attrib-name_attrib-gen-attrib $-1 -1 $87 $-1 $45 2 1 1 1 1 1 1 1 1 1 1 1 1 1 0 1 1 1 @8 CUBIT_ID 7 #
vertex $88 -1 -1 $-1 $45 $89 #
ellipse-curve $-1 -1 -1 $-1 -16 0 -14.600000000000003 0 0 1 14.400000000000002 0 8.8817841970012523e-16 1 I I #
face $90 -1 -1 $-1 $91 $92 $5 $-1 $93 forward single T -30.200000000000003 -14.200000000000003 -5.7000000000000011 -1.7999999999999972 14.200000000000003 -5.4000000000000012 F #
integer_attrib-name_attrib-gen-attrib $-1 -1 $-1 $-1 $48 2 1 1 1 1 1 1 1 1 1 1 1 1 1 0 1 1 1 @8 CUBIT_ID 20 #
point $-1 -1 -1 $-1 -2.0999999999999979 1.7022590508148209e-15 -5.7000000000000011 #
integer_attrib-name_attrib-gen-attrib $-1 -1 $-1 $-1 $51 2 1 1 1 1 1 1 1 1 1 1 1 1 1 0 1 1 1 @8 CUBIT_ID 19 #
point $-1 -1 -1 $-1 -2.1000000000000014 -1.7022590508148205e-15 -14.300000000000002 #
integer_attrib-name_attrib-gen-attrib $-1 -1 $-1 $-1 $56 2 1 1 1 1 1 1 1 1 1 1 1 1 1 0 1 1 1 @8 CUBIT_ID 20 #
face $94 -1 -1 $-1 $95 $96 $5 $-1 $97 forward single T -30.400000000000006 -14.400000000000002 -5.0000000000000036 -1.5999999999999996 14.400000000000002 -5.0000000000000018 F #
loop $-1 -1 -1 $-1 $98 $99 $56 T -30.200000000000003 -14.200000000000003 -5.0000000000000027 -1.7999999999999972 14.200000000000003 -5.0000000000000027 unknown #
cone-surface $-1 -1 -1 $-1 -16 0 -5.0000000000000027 0 0 1 -14.200000000000001 -0 -0 1 I I -0.70710678118654746 0.70710678118654746 14.200000000000001 forward I I I I #
loop $-1 -1 -1 $-1 $-1 $62 $40 T -30.200000000000003 -14.200000000000003 -15 -1.7999999999999972 14.200000000000003 -15 unknown #
coedge $-1 -1 -1 $-1 $78 $78 $100 $101 forward $57 $-1 #
coedge $-1 -1 -1 $-1 $79 $79 $61 $82 reversed $59 $-1 #
coedge $-1 -1 -1 $-1 $80 $80 $60 $81 forward $102 $-1 #
edge $103 -1 -1 $-1 $104 -3.1415926535897931 $104 3.1415926535897931 $60 $105 forward @7 unknown T -29.899999999999999 -13.899999999999999 -19.500000000000004 -2.1000000000000014 13.899999999999999 -19.500000000000004 #
edge $106 -1 -1 $-1 $107 -3.1415926535897931 $107 3.1415926535897931 $79 $108 forward @7 unknown T -29.899999999999999 -13.899999999999999 -15.300000000000001 -2.1000000000000014 13.899999999999999 -15.300000000000001 #
integer_attrib-name_attrib-gen-attrib $-1 -1 $-1 $-1 $63 2 1 1 1 1 1 1 1 1 1 1 1 1 1 0 1 1 1 @8 CUBIT_ID 22 #
vertex $109 -1 -1 $-1 $63 $110 #
ellipse-curve $-1 -1 -1 $-1 -16 0 -15 0 0 -1 -14.200000000000003 0 0 1 I I #
face $111 -1 -1 $-1 $112 $113 $5 $-1 $114 forward single T -30.400000000000002 -14.400000000000002 -15.000000000000004 -1.5999999999999979 14.400000000000002 -14.600000000000001 F #
simple-snl-attrib $-1 -1 $-1 $65 $45 1 1 1 1 1 1 1 1 1 1 1 1 0 1 0 1 1 1 @17 NEW_SIMPLE_ATTRIB 1 @9 ENTITY_ID 0 3 7 -2147483648 -1 #
integer_attrib-name_attrib-gen-attrib $-1 -1 $115 $-1 $66 2 1 1 1 1 1 1 1 1 1 1 1 1 1 0 1 1 1 @8 CUBIT_ID 7 #
point $-1 -1 -1 $-1 -1.5999999999999996 0 -14.600000000000003 #
integer_attrib-name_attrib-gen-attrib $-1 -1 $-1 $-1 $68 2 1 1 1 1 1 1 1 1 1 1 1 1 1 0 1 1 1 @8 CUBIT_ID 21 #
face $116 -1 -1 $-1 $117 $118 $5 $-1 $119 forward single T -30.400000000000002 -14.400000000000002 -5.4000000000000021 -1.5999999999999979 14.400000000000002 -5.4000000000000004 F #
loop $-1 -1 -1 $-1 $46 $120 $68 T -30.200000000000003 -14.200000000000003 -5.4000000000000012 -1.7999999999999972 14.200000000000003 -5.4000000000000012 unknown #
cone-surface $-1 -1 -1 $-1 -16 0 -5.4000000000000012 0 0 -1 -14.200000000000001 -0 -0 1 I I -0.70710678118654746 0.70710678118654746 14.200000000000001 forward I I I I #
integer_attrib-name_attrib-gen-attrib $-1 -1 $-1 $-1 $74 2 1 1 1 1 1 1 1 1 1 1 1 1 1 0 1 1 1 @8 CUBIT_ID 7 #
face $121 -1 -1 $-1 $68 $122 $5 $-1 $14 forward single T -29.900000000000002 -13.900000000000002 -4.7000000000000028 -2.0999999999999979 13.900000000000002 4.4408920985006262e-16 F #
loop $-1 -1 -1 $-1 $123 $124 $74 T -30.400000000000006 -14.400000000000002 -5.0000000000000036 -1.5999999999999996 14.400000000000002 -5.0000000000000018 unknown #
plane-surface $-1 -1 -1 $-1 -16.000000000000004 0 -5.0000000000000027 0 0 1 1 0 0 forward_v I I I I #
loop $-1 -1 -1 $-1 $-1 $125 $56 T -29.900000000000002 -13.900000000000002 -4.7000000000000028 -2.0999999999999979 13.900000000000002 -4.7000000000000028 unknown #
coedge $-1 -1 -1 $-1 $99 $99 $126 $127 forward $75 $-1 #
coedge $-1 -1 -1 $-1 $100 $100 $78 $101 reversed $113 $-1 #
edge $128 -1 -1 $-1 $129 0 $129 6.2831853071795862 $78 $130 forward @7 unknown T -30.400000000000002 -14.400000000000002 -15.000000000000004 -1.5999999999999979 14.400000000000002 -15 #
loop $-1 -1 -1 $-1 $131 $80 $117 T -29.899999999999999 -13.899999999999999 -19.500000000000004 -2.1000000000000014 13.899999999999999 -19.500000000000004 unknown #
integer_attrib-name_attrib-gen-attrib $-1 -1 $132 $-1 $81 2 1 1 1 1 1 1 1 1 1 1 1 1 1 0 1 1 1 @8 CUBIT_ID 17 #
vertex $133 -1 -1 $-1 $81 $134 #
ellipse-curve $-1 -1 -1 $-1 -16 0 -19.500000000000004 0 0 -1 -13.899999999999999 0 0 1 I I #
integer_attrib-name_attrib-gen-attrib $-1 -1 $-1 $-1 $82 2 1 1 1 1 1 1 1 1 1 1 1 1 1 0 1 1 1 @8 CUBIT_ID 23 #
vertex $135 -1 -1 $-1 $82 $136 #
ellipse-curve $-1 -1 -1 $-1 -16 0 -15.300000000000001 -0 -0 1 -13.899999999999999 0 0 1 I I #
integer_attrib-name_attrib-gen-attrib $-1 -1 $-1 $-1 $84 2 1 1 1 1 1 1 1 1 1 1 1 1 1 0 1 1 1 @8 CUBIT_ID 21 #
point $-1 -1 -1 $-1 -1.7999999999999972 -1.7389984547892415e-15 -15 #
integer_attrib-name_attrib-gen-attrib $-1 -1 $137 $-1 $86 2 1 1 1 1 1 1 1 1 1 1 1 1 1 0 1 1 1 @8 CUBIT_ID 4 #
face $138 -1 -1 $-1 $139 $140 $5 $-1 $141 forward single T -28.000000000000004 -12.000000000000002 0 -3.9999999999999982 12.000000000000002 8.8817841970012523e-16 F #
loop $-1 -1 -1 $-1 $64 $100 $86 T -30.400000000000002 -14.400000000000002 -15.000000000000004 -1.5999999999999979 14.400000000000002 -15 unknown #
cone-surface $-1 -1 -1 $-1 -16.000000000000004 0 -14.800000000000001 0 0 1 14.400000000000002 0 8.8817841970012523e-16 1 I I 0 1 14.4 forward I I I I #
simple-snl-attrib $-1 -1 $-1 $88 $66 1 1 1 1 1 1 1 1 1 1 1 1 0 1 0 1 1 1 @17 NEW_SIMPLE_ATTRIB 1 @9 ENTITY_ID 0 3 7 -2147483648 -1 #
integer_attrib-name_attrib-gen-attrib $-1 -1 $-1 $-1 $91 2 1 1 1 1 1 1 1 1 1 1 1 1 1 0 1 1 1 @8 CUBIT_ID 6 #
face $142 -1 -1 $-1 $143 $102 $5 $-1 $144 forward single T -29.899999999999999 -13.899999999999999 -20.000000000000004 -2.1000000000000014 13.899999999999999 -19.500000000000004 F #
loop $-1 -1 -1 $-1 $145 $146 $91 T -30.400000000000002 -14.400000000000002 -5.4000000000000021 -1.5999999999999979 14.400000000000002 -5.4000000000000004 unknown #
plane-surface $-1 -1 -1 $-1 -16 0 -5.4000000000000012 0 0 -1 -1 0 0 forward_v I I I I #
coedge $-1 -1 -1 $-1 $120 $120 $147 $148 forward $92 $-1 #
integer_attrib-name_attrib-gen-attrib $-1 -1 $-1 $-1 $95 2 1 1 1 1 1 1 1 1 1 1 1 1 1 0 1 1 1 @8 CUBIT_ID 8 #
loop $-1 -1 -1 $-1 $149 $150 $95 T -29.899999999999999 -13.9 -4.4408920985006262e-16 -2.0999999999999996 13.9 4.4408920985006262e-16 unknown #
loop $-1 -1 -1 $-1 $-1 $126 $74 T -30.200000000000003 -14.200000000000003 -5.0000000000000027 -1.7999999999999972 14.200000000000003 -5.0000000000000027 unknown #
coedge $-1 -1 -1 $-1 $124 $124 $151 $152 forward $96 $-1 #
coedge $-1 -1 -1 $-1 $125 $125 $153 $154 forward $98 $-1 #
coedge $-1 -1 -1 $-1 $126 $126 $99 $127 reversed $123 $-1 #
edge $155 -1 -1 $-1 $156 -3.1415926535897931 $156 3.1415926535897931 $126 $157 forward @7 unknown T -30.200000000000003 -14.200000000000003 -5.0000000000000027 -1.7999999999999972 14.200000000000003 -5.0000000000000027 #
integer_attrib-name_attrib-gen-attrib $-1 -1 $158 $-1 $101 2 1 1 1 1 1 1 1 1 1 1 1 1 1 0 1 1 1 @8 CUBIT_ID 6 #
vertex $159 -1 -1 $-1 $101 $160 #
ellipse-curve $-1 -1 -1 $-1 -16 0 -15 0 0 -1 14.400000000000002 0 8.8817841970012523e-16 1 I I #
loop $-1 -1 -1 $-1 $-1 $161 $117 T -29.399999999999999 -13.399999999999999 -20.000000000000004 -2.6000000000000014 13.399999999999999 -20.000000000000004 unknown #
simple-snl-attrib $-1 -1 $-1 $103 $81 1 1 1 1 1 1 1 1 1 1 1 1 0 1 0 1 1 1 @17 NEW_SIMPLE_ATTRIB 1 @9 ENTITY_ID 0 3 17 -2147483648 -1 #
integer_attrib-name_attrib-gen-attrib $-1 -1 $162 $-1 $104 2 1 1 1 1 1 1 1 1 1 1 1 1 1 0 1 1 1 @8 CUBIT_ID 16 #
point $-1 -1 -1 $-1 -2.1000000000000014 -1.7022590508148205e-15 -19.500000000000004 #
integer_attrib-name_attrib-gen-attrib $-1 -1 $-1 $-1 $107 2 1 1 1 1 1 1 1 1 1 1 1 1 1 0 1 1 1 @8 CUBIT_ID 22 #
point $-1 -1 -1 $-1 -2.1000000000000014 1.7022590508148205e-15 -15.300000000000001 #
simple-snl-attrib $-1 -1 $-1 $111 $86 1 1 1 1 1 1 1 1 1 1 1 1 0 1 0 1 1 1 @17 NEW_SIMPLE_ATTRIB 1 @9 ENTITY_ID 0 3 4 -2147483648 -1 #
integer_attrib-name_attrib-gen-attrib $-1 -1 $163 $-1 $112 2 1 1 1 1 1 1 1 1 1 1 1 1 1 0 1 1 1 @8 CUBIT_ID 1 #
face $164 -1 -1 $-1 $165 $166 $5 $-1 $167 reversed single T -28.000000000000004 -12.000000000000002 -20.000000000000004 -3.9999999999999982 12.000000000000002 8.8817841970012523e-16 F #
loop $-1 -1 -1 $-1 $-1 $168 $112 T -28.000000000000004 -12.000000000000002 0 -3.9999999999999982 12.000000000000002 8.8817841970012523e-16 unknown #
plane-surface $-1 -1 -1 $-1 -16 0 0 0 0 -1 -1 0 0 forward_v I I I I #
integer_attrib-name_attrib-gen-attrib $-1 -1 $169 $-1 $117 2 1 1 1 1 1 1 1 1 1 1 1 1 1 0 1 1 1 @8 CUBIT_ID 17 #
face $170 -1 -1 $-1 $171 $172 $5 $-1 $173 forward single T -29.399999999999999 -13.399999999999999 -20.000000000000004 -2.6000000000000014 13.399999999999999 -20 F #
cone-surface $-1 -1 -1 $-1 -16 0 -20.000000000000004 0 0 -1 -13.4 -0 -0 1 I I -0.70710678118654746 0.70710678118654746 13.4 forward I I I I #
loop $-1 -1 -1 $-1 $-1 $147 $91 T -30.200000000000003 -14.200000000000003 -5.4000000000000012 -1.7999999999999972 14.200000000000003 -5.4000000000000012 unknown #
coedge $-1 -1 -1 $-1 $146 $146 $174 $175 forward $118 $-1 #
coedge $-1 -1 -1 $-1 $147 $147 $120 $148 reversed $145 $-1 #
edge $176 -1 -1 $-1 $177 -3.1415926535897931 $177 3.1415926535897931 $147 $178 forward @7 unknown T -30.200000000000003 -14.200000000000003 -5.4000000000000012 -1.7999999999999972 14.200000000000003 -5.4000000000000012 #
loop $-1 -1 -1 $-1 $-1 $153 $95 T -29.900000000000002 -13.900000000000002 -4.7000000000000028 -2.0999999999999979 13.900000000000002 -4.7000000000000028 unknown #
coedge $-1 -1 -1 $-1 $150 $150 $179 $180 reversed $122 $-1 #
coedge $-1 -1 -1 $-1 $151 $151 $124 $152 reversed $181 $-1 #
edge $182 -1 -1 $-1 $183 0 $183 6.2831853071795862 $124 $184 forward @7 unknown T -30.400000000000006 -14.400000000000002 -5.0000000000000036 -1.5999999999999996 14.400000000000002 -5.0000000000000018 #
coedge $-1 -1 -1 $-1 $153 $153 $125 $154 reversed $149 $-1 #
edge $185 -1 -1 $-1 $186 -3.1415926535897931 $186 3.1415926535897931 $153 $187 forward @7 unknown T -29.900000000000002 -13.900000000000002 -4.7000000000000028 -2.0999999999999979 13.900000000000002 -4.7000000000000028 #
integer_attrib-name_attrib-gen-attrib $-1 -1 $-1 $-1 $127 2 1 1 1 1 1 1 1 1 1 1 1 1 1 0 1 1 1 @8 CUBIT_ID 24 #
vertex $188 -1 -1 $-1 $127 $189 #
ellipse-curve $-1 -1 -1 $-1 -16 0 -5.0000000000000027 0 0 1 -14.200000000000003 0 0 1 I I #
simple-snl-attrib $-1 -1 $-1 $128 $101 1 1 1 1 1 1 1 1 1 1 1 1 0 1 0 1 1 1 @17 NEW_SIMPLE_ATTRIB 1 @9 ENTITY_ID 0 3 6 -2147483648 -1 #
integer_attrib-name_attrib-gen-attrib $-1 -1 $190 $-1 $129 2 1 1 1 1 1 1 1 1 1 1 1 1 1 0 1 1 1 @8 CUBIT_ID 6 #
point $-1 -1 -1 $-1 -1.5999999999999992 0 -15.000000000000004 #
coedge $-1 -1 -1 $-1 $161 $161 $191 $192 forward $131 $-1 #
simple-snl-attrib $-1 -1 $-1 $133 $104 1 1 1 1 1 1 1 1 1 1 1 1 0 1 0 1 1 1 @17 NEW_SIMPLE_ATTRIB 1 @9 ENTITY_ID 0 3 16 -2147483648 -1 #
simple-snl-attrib $-1 -1 $-1 $138 $112 1 1 1 1 1 1 1 1 1 1 1 1 0 1 0 1 1 1 @17 NEW_SIMPLE_ATTRIB 1 @9 ENTITY_ID 0 3 1 -2147483648 -1 #
integer_attrib-name_attrib-gen-attrib $-1 -1 $193 $-1 $139 2 1 1 1 1 1 1 1 1 1 1 1 1 1 0 1 1 1 @8 CUBIT_ID 13 #
face $194 -1 -1 $-1 $-1 $195 $5 $-1 $196 forward single T -32 -16 -4.4408920985006262e-16 0 16 4.4408920985006262e-16 F #
loop $-1 -1 -1 $-1 $197 $198 $139 T -28.000000000000004 -12.000000000000002 0 -3.9999999999999982 12.000000000000002 8.8817841970012523e-16 unknown #
cone-surface $-1 -1 -1 $-1 -16 0 0 0 0 1 12.000000000000002 0 0 1 I I 0 1 12 forward I I I I #
coedge $-1 -1 -1 $-1 $168 $168 $198 $199 reversed $140 $-1 #
simple-snl-attrib $-1 -1 $-1 $142 $117 1 1 1 1 1 1 1 1 1 1 1 1 0 1 0 1 1 1 @17 NEW_SIMPLE_ATTRIB 1 @9 ENTITY_ID 0 3 17 -2147483648 -1 #
integer_attrib-name_attrib-gen-attrib $-1 -1 $200 $-1 $143 2 1 1 1 1 1 1 1 1 1 1 1 1 1 0 1 1 1 @8 CUBIT_ID 2 #
face $201 -1 -1 $-1 $202 $203 $5 $-1 $204 reversed single T -25.452209834834566 -12.042222140925441 8.9280958049260963 -1.8400889940197593 12.080391177944772 16.147065418392021 F #
loop $-1 -1 -1 $-1 $205 $206 $143 T -28 -12.000000000000002 -20.000000000000004 -3.9999999999999982 12.000000000000002 -20 unknown #
plane-surface $-1 -1 -1 $-1 -16 0 -20.000000000000004 0 0 -1 -1 0 0 forward_v I I I I #
coedge $-1 -1 -1 $-1 $174 $174 $146 $175 reversed $207 $-1 #
edge $208 -1 -1 $-1 $209 0 $209 6.2831853071795862 $146 $210 forward @7 unknown T -30.400000000000002 -14.400000000000002 -5.4000000000000021 -1.5999999999999979 14.400000000000002 -5.4000000000000004 #
integer_attrib-name_attrib-gen-attrib $-1 -1 $-1 $-1 $148 2 1 1 1 1 1 1 1 1 1 1 1 1 1 0 1 1 1 @8 CUBIT_ID 26 #
vertex $211 -1 -1 $-1 $148 $212 #
ellipse-curve $-1 -1 -1 $-1 -16 0 -5.4000000000000012 0 0 -1 -14.200000000000003 0 0 1 I I #
coedge $-1 -1 -1 $-1 $179 $179 $150 $180 forward $195 $-1 #
edge $213 -1 -1 $-1 $214 0 $214 6.2831853071795862 $179 $215 forward @7 unknown T -29.899999999999999 -13.9 -4.4408920985006262e-16 -2.0999999999999996 13.9 4.4408920985006262e-16 #
loop $-1 -1 -1 $-1 $-1 $151 $216 T -30.400000000000006 -14.400000000000002 -5.0000000000000036 -1.5999999999999996 14.400000000000002 -5.0000000000000018 unknown #
integer_attrib-name_attrib-gen-attrib $-1 -1 $217 $-1 $152 2 1 1 1 1 1 1 1 1 1 1 1 1 1 0 1 1 1 @8 CUBIT_ID 9 #
vertex $218 -1 -1 $-1 $152 $219 #
ellipse-curve $-1 -1 -1 $-1 -16.000000000000004 0 -5.0000000000000027 0 0 1 14.400000000000002 0 8.8817841970012523e-16 1 I I #
integer_attrib-name_attrib-gen-attrib $-1 -1 $-1 $-1 $154 2 1 1 1 1 1 1 1 1 1 1 1 1 1 0 1 1 1 @8 CUBIT_ID 25 #
vertex $220 -1 -1 $-1 $154 $221 #
ellipse-curve $-1 -1 -1 $-1 -16 0 -4.7000000000000028 -0 -0 -1 -13.900000000000002 0 0 1 I I #
integer_attrib-name_attrib-gen-attrib $-1 -1 $-1 $-1 $156 2 1 1 1 1 1 1 1 1 1 1 1 1 1 0 1 1 1 @8 CUBIT_ID 23 #
point $-1 -1 -1 $-1 -1.7999999999999972 1.7389984547892415e-15 -5.0000000000000027 #
simple-snl-attrib $-1 -1 $-1 $159 $129 1 1 1 1 1 1 1 1 1 1 1 1 0 1 0 1 1 1 @17 NEW_SIMPLE_ATTRIB 1 @9 ENTITY_ID 0 3 6 -2147483648 -1 #
coedge $-1 -1 -1 $-1 $191 $191 $161 $192 reversed $205 $-1 #
edge $222 -1 -1 $-1 $223 -3.1415926535897931 $223 3.1415926535897931 $191 $224 forward @7 unknown T -29.399999999999999 -13.399999999999999 -20.000000000000004 -2.6000000000000014 13.399999999999999 -20.000000000000004 #
simple-snl-attrib $-1 -1 $-1 $164 $139 1 1 1 1 1 1 1 1 1 1 1 1 0 1 0 1 1 1 @17 NEW_SIMPLE_ATTRIB 1 @9 ENTITY_ID 0 3 13 -2147483648 -1 #
integer_attrib-name_attrib-gen-attrib $-1 -1 $225 $-1 $165 2 1 1 1 1 1 1 1 1 1 1 1 1 1 0 1 1 1 @8 CUBIT_ID 3 #
loop $-1 -1 -1 $-1 $226 $179 $165 T -29.899999999999999 -13.9 -4.4408920985006262e-16 -2.0999999999999996 13.9 4.4408920985006262e-16 unknown #
plane-surface $-1 -1 -1 $-1 -16 0 0 0 0 -1 -1 0 0 forward_v I I I I #
loop $-1 -1 -1 $-1 $-1 $227 $139 T -28 -12.000000000000002 -20.000000000000004 -3.9999999999999982 12.000000000000002 -20 unknown #
coedge $-1 -1 -1 $-1 $198 $198 $168 $199 forward $166 $-1 #
edge $228 -1 -1 $-1 $229 -3.1415926535897931 $229 3.1415926535897931 $198 $230 forward @7 unknown T -28.000000000000004 -12.000000000000002 0 -3.9999999999999982 12.000000000000002 8.8817841970012523e-16 #
simple-snl-attrib $-1 -1 $-1 $170 $143 1 1 1 1 1 1 1 1 1 1 1 1 0 1 0 1 1 1 @17 NEW_SIMPLE_ATTRIB 1 @9 ENTITY_ID 0 3 2 -2147483648 -1 #
integer_attrib-name_attrib-gen-attrib $-1 -1 $231 $-1 $171 2 1 1 1 1 1 1 1 1 1 1 1 1 1 0 1 1 1 @8 CUBIT_ID 15 #
face $232 -1 -1 $-1 $233 $234 $5 $-1 $235 forward single T -32.047239057061688 -16.551971962962423 2.9639236067944874 0.44972096704666775 16.254361983237484 16.179558832751049 F #
loop $-1 -1 -1 $-1 $-1 $236 $171 T -25.452209834834566 -12.042222140925441 8.9280958049260963 -1.8400889940197593 12.080391177944772 16.147065418392021 unknown #
plane-surface $-1 -1 -1 $-1 1.3826688818188577 0 7.9428097524270207 -0.29237170472273666 0 -0.95630475596303555 -0.95630475596303555 0 0.29237170472273666 forward_v I I I I #
loop $-1 -1 -1 $-1 $-1 $191 $143 T -29.399999999999999 -13.399999999999999 -20.000000000000004 -2.6000000000000014 13.399999999999999 -20.000000000000004 unknown #
coedge $-1 -1 -1 $-1 $206 $206 $227 $237 forward $172 $-1 #
loop $-1 -1 -1 $-1 $181 $174 $216 T -30.400000000000002 -14.400000000000002 -5.4000000000000021 -1.5999999999999979 14.400000000000002 -5.4000000000000004 unknown #
integer_attrib-name_attrib-gen-attrib $-1 -1 $238 $-1 $175 2 1 1 1 1 1 1 1 1 1 1 1 1 1 0 1 1 1 @8 CUBIT_ID 8 #
vertex $239 -1 -1 $-1 $175 $240 #
ellipse-curve $-1 -1 -1 $-1 -16 0 -5.4000000000000012 0 0 -1 14.400000000000002 0 8.8817841970012523e-16 1 I I #
integer_attrib-name_attrib-gen-attrib $-1 -1 $-1 $-1 $177 2 1 1 1 1 1 1 1 1 1 1 1 1 1 0 1 1 1 @8 CUBIT_ID 25 #
point $-1 -1 -1 $-1 -1.7999999999999972 -1.7389984547892415e-15 -5.4000000000000012 #
integer_attrib-name_attrib-gen-attrib $-1 -1 $241 $-1 $180 2 1 1 1 1 1 1 1 1 1 1 1 1 1 0 1 1 1 @8 CUBIT_ID 5 #
vertex $242 -1 -1 $-1 $180 $243 #
ellipse-curve $-1 -1 -1 $-1 -16 0 0 0 0 1 13.9 0 4.4408920985006262e-16 1 I I #
face $244 -1 -1 $-1 $86 $207 $5 $-1 $245 forward single T -30.400000000000006 -14.400000000000002 -5.4000000000000021 -1.5999999999999979 14.400000000000002 -5.0000000000000018 F #
simple-snl-attrib $-1 -1 $-1 $182 $152 1 1 1 1 1 1 1 1 1 1 1 1 0 1 0 1 1 1 @17 NEW_SIMPLE_ATTRIB 1 @9 ENTITY_ID 0 3 9 -2147483648 -1 #
integer_attrib-name_attrib-gen-attrib $-1 -1 $246 $-1 $183 2 1 1 1 1 1 1 1 1 1 1 1 1 1 0 1 1 1 @8 CUBIT_ID 9 #
point $-1 -1 -1 $-1 -1.5999999999999996 0 -5.0000000000000027 #
integer_attrib-name_attrib-gen-attrib $-1 -1 $-1 $-1 $186 2 1 1 1 1 1 1 1 1 1 1 1 1 1 0 1 1 1 @8 CUBIT_ID 24 #
point $-1 -1 -1 $-1 -2.0999999999999979 -1.7022590508148209e-15 -4.7000000000000028 #
integer_attrib-name_attrib-gen-attrib $-1 -1 $247 $-1 $192 2 1 1 1 1 1 1 1 1 1 1 1 1 1 0 1 1 1 @8 CUBIT_ID 18 #
vertex $248 -1 -1 $-1 $192 $249 #
ellipse-curve $-1 -1 -1 $-1 -16 0 -20.000000000000004 -0 -0 1 -13.399999999999999 0 0 1 I I #
simple-snl-attrib $-1 -1 $-1 $194 $165 1 1 1 1 1 1 1 1 1 1 1 1 0 1 0 1 1 1 @17 NEW_SIMPLE_ATTRIB 1 @9 ENTITY_ID 0 3 3 -2147483648 -1 #
loop $-1 -1 -1 $-1 $-1 $250 $165 T -32 -16 0 0 16 0 unknown #
coedge $-1 -1 -1 $-1 $227 $227 $206 $237 reversed $197 $-1 #
integer_attrib-name_attrib-gen-attrib $-1 -1 $251 $-1 $199 2 1 1 1 1 1 1 1 1 1 1 1 1 1 0 1 1 1 @8 CUBIT_ID 4 #
vertex $252 -1 -1 $-1 $199 $253 #
ellipse-curve $-1 -1 -1 $-1 -16 0 0 0 0 1 12.000000000000002 0 0 1 I I #
simple-snl-attrib $-1 -1 $-1 $201 $171 1 1 1 1 1 1 1 1 1 1 1 1 0 1 0 1 1 1 @17 NEW_SIMPLE_ATTRIB 1 @9 ENTITY_ID 0 3 15 -2147483648 -1 #
integer_attrib-name_attrib-gen-attrib $-1 -1 $254 $-1 $202 2 1 1 1 1 1 1 1 1 1 1 1 1 1 0 1 1 1 @8 CUBIT_ID 16 #
face $255 -1 -1 $-1 $216 $256 $5 $-1 $257 forward single T -32.000000000000007 -16 0 0 16 6.7260749920905312 F #
loop $-1 -1 -1 $-1 $-1 $258 $202 T -32.000000000000007 -16 3.0573068145866054 -3.5527136788005009e-15 16 16.147065418392021 unknown #
spline-surface $-1 -1 -1 $-1 reversed { rbblnsur 0 @11 blendsupsur cone -16.000000000000004 0 16.000000000000004 0 0 1 16 0 0 1 I I 0 1 16 forward I I I I null_curve nullbs 0 0 0 
	@11 blendsupsur plane 1.9674122912643313 0 9.8554192643530918 0.29237170472273666 0 0.95630475596303555 -0.95630475596303555 0 0.29237170472273666 reverse_v I I I I null_curve nullbs 0 0 0 
	42 1e-08 
	ellipse -16.000000000000004 0 4.8916909033385654 0.29237170472273666 0 0.95630475596303555 6.0000000000000009 0 -1.8343840887519618 0.95630475596303555 I I 
	null_curve 
	null_curve 
	null_curve 
	null_curve 
	-10 -10 
	no_radius 
	F 0 F 1 
	I I 
	1 0.050000000000000003 0.047239057061682764 
	T 
	1 
	summary 4 0 0.33333333333333331 0.66666666666666663 1 11 -3.1415926535897931 -2.8547012268008825 -2.3956749439386256 -1.7478532341750572 -0.94426607870460488 -0.11426614017399706 0.71919418700976256 1.5531566110908019 2.384415550365369 2.7630041019775811 3.1415926535897931 0.047239057061682764 OPEN PERIODIC NON_SINGULAR NON_SINGULAR 
	0 
	0 
	0 
	0 
	0 
	0 
	} F 0 F 0.65567838163558323 I I #
coedge $-1 -1 -1 $-1 $236 $236 $258 $259 forward $203 $-1 #
edge $260 -1 -1 $-1 $261 -3.1415926535897931 $261 3.1415926535897931 $206 $262 forward @7 unknown T -28 -12.000000000000002 -20.000000000000004 -3.9999999999999982 12.000000000000002 -20 #
simple-snl-attrib $-1 -1 $-1 $208 $175 1 1 1 1 1 1 1 1 1 1 1 1 0 1 0 1 1 1 @17 NEW_SIMPLE_ATTRIB 1 @9 ENTITY_ID 0 3 8 -2147483648 -1 #
integer_attrib-name_attrib-gen-attrib $-1 -1 $263 $-1 $209 2 1 1 1 1 1 1 1 1 1 1 1 1 1 0 1 1 1 @8 CUBIT_ID 8 #
point $-1 -1 -1 $-1 -1.5999999999999996 0 -5.4000000000000004 #
simple-snl-attrib $-1 -1 $-1 $213 $180 1 1 1 1 1 1 1 1 1 1 1 1 0 1 0 1 1 1 @17 NEW_SIMPLE_ATTRIB 1 @9 ENTITY_ID 0 3 5 -2147483648 -1 #
integer_attrib-name_attrib-gen-attrib $-1 -1 $264 $-1 $214 2 1 1 1 1 1 1 1 1 1 1 1 1 1 0 1 1 1 @8 CUBIT_ID 5 #
point $-1 -1 -1 $-1 -2.0999999999999996 0 -1.1102230246251565e-16 #
integer_attrib-name_attrib-gen-attrib $-1 -1 $265 $-1 $216 2 1 1 1 1 1 1 1 1 1 1 1 1 1 0 1 1 1 @8 CUBIT_ID 5 #
cone-surface $-1 -1 -1 $-1 -16 0 -5.2000000000000028 0 0 1 14.400000000000002 0 8.8817841970012523e-16 1 I I 0 1 14.4 forward I I I I #
simple-snl-attrib $-1 -1 $-1 $218 $183 1 1 1 1 1 1 1 1 1 1 1 1 0 1 0 1 1 1 @17 NEW_SIMPLE_ATTRIB 1 @9 ENTITY_ID 0 3 9 -2147483648 -1 #
simple-snl-attrib $-1 -1 $-1 $222 $192 1 1 1 1 1 1 1 1 1 1 1 1 0 1 0 1 1 1 @17 NEW_SIMPLE_ATTRIB 1 @9 ENTITY_ID 0 3 18 -2147483648 -1 #
integer_attrib-name_attrib-gen-attrib $-1 -1 $266 $-1 $223 2 1 1 1 1 1 1 1 1 1 1 1 1 1 0 1 1 1 @8 CUBIT_ID 17 #
point $-1 -1 -1 $-1 -2.6000000000000014 1.6410267108574527e-15 -20.000000000000004 #
coedge $-1 -1 -1 $-1 $250 $250 $267 $268 forward $226 $-1 #
simple-snl-attrib $-1 -1 $-1 $228 $199 1 1 1 1 1 1 1 1 1 1 1 1 0 1 0 1 1 1 @17 NEW_SIMPLE_ATTRIB 1 @9 ENTITY_ID 0 3 4 -2147483648 -1 #
integer_attrib-name_attrib-gen-attrib $-1 -1 $269 $-1 $229 2 1 1 1 1 1 1 1 1 1 1 1 1 1 0 1 1 1 @8 CUBIT_ID 4 #
point $-1 -1 -1 $-1 -28.000000000000004 -1.4695761589768236e-15 8.8817841970012523e-16 #
simple-snl-attrib $-1 -1 $-1 $232 $202 1 1 1 1 1 1 1 1 1 1 1 1 0 1 0 1 1 1 @17 NEW_SIMPLE_ATTRIB 1 @9 ENTITY_ID 0 3 16 -2147483648 -1 #
integer_attrib-name_attrib-gen-attrib $-1 -1 $270 $-1 $233 2 1 1 1 1 1 1 1 1 1 1 1 1 1 0 1 1 1 @8 CUBIT_ID 14 #
loop $-1 -1 -1 $-1 $271 $267 $233 T -32 -16 0 0 16 0 unknown #
cone-surface $-1 -1 -1 $-1 -16.000000000000004 0 16.000000000000004 0 0 1 16 0 0 1 I I 0 1 16 forward I I I I #
coedge $-1 -1 -1 $-1 $272 $273 $236 $259 reversed $234 $274 #
edge $275 -1 -1 $-1 $276 -70.519122294642742 $276 5.9490885589782323 $258 $277 forward @7 unknown T -25.452209834834566 -12.042222140925441 8.9280958049260963 -1.8400889940197593 12.080391177944772 16.147065418392021 #
integer_attrib-name_attrib-gen-attrib $-1 -1 $278 $-1 $237 2 1 1 1 1 1 1 1 1 1 1 1 1 1 0 1 1 1 @8 CUBIT_ID 3 #
vertex $279 -1 -1 $-1 $237 $280 #
ellipse-curve $-1 -1 -1 $-1 -16 0 -20.000000000000004 0 0 1 12.000000000000002 0 0 1 I I #
simple-snl-attrib $-1 -1 $-1 $239 $209 1 1 1 1 1 1 1 1 1 1 1 1 0 1 0 1 1 1 @17 NEW_SIMPLE_ATTRIB 1 @9 ENTITY_ID 0 3 8 -2147483648 -1 #
simple-snl-attrib $-1 -1 $-1 $242 $214 1 1 1 1 1 1 1 1 1 1 1 1 0 1 0 1 1 1 @17 NEW_SIMPLE_ATTRIB 1 @9 ENTITY_ID 0 3 5 -2147483648 -1 #
simple-snl-attrib $-1 -1 $-1 $244 $216 1 1 1 1 1 1 1 1 1 1 1 1 0 1 0 1 1 1 @17 NEW_SIMPLE_ATTRIB 1 @9 ENTITY_ID 0 3 5 -2147483648 -1 #
simple-snl-attrib $-1 -1 $-1 $248 $223 1 1 1 1 1 1 1 1 1 1 1 1 0 1 0 1 1 1 @17 NEW_SIMPLE_ATTRIB 1 @9 ENTITY_ID 0 3 17 -2147483648 -1 #
coedge $-1 -1 -1 $-1 $267 $267 $250 $268 reversed $256 $-1 #
edge $281 -1 -1 $-1 $282 0 $282 6.2831853071795862 $250 $283 forward @7 unknown T -32 -16 0 0 16 0 #
simple-snl-attrib $-1 -1 $-1 $252 $229 1 1 1 1 1 1 1 1 1 1 1 1 0 1 0 1 1 1 @17 NEW_SIMPLE_ATTRIB 1 @9 ENTITY_ID 0 3 4 -2147483648 -1 #
simple-snl-attrib $-1 -1 $-1 $255 $233 1 1 1 1 1 1 1 1 1 1 1 1 0 1 0 1 1 1 @17 NEW_SIMPLE_ATTRIB 1 @9 ENTITY_ID 0 3 14 -2147483648 -1 #
loop $-1 -1 -1 $-1 $-1 $284 $233 T -32.000000000000007 -16 3.0573068145866054 -3.5527136788005009e-15 16 6.7260749920905312 unknown #
coedge $-1 -1 -1 $-1 $285 $258 $273 $286 forward $234 $287 #
coedge $-1 -1 -1 $-1 $258 $285 $272 $286 reversed $234 $288 #
pcurve $-1 -1 -1 $-1 -2 $277 0 0 #
integer_attrib-name_attrib-gen-attrib $-1 -1 $289 $-1 $259 2 1 1 1 1 1 1 1 1 1 1 1 1 1 0 1 1 1 @8 CUBIT_ID 15 #
vertex $290 -1 -1 $-1 $286 $291 #
intcurve-curve $-1 -1 -1 $-1 forward { surfintcur 1 full nubs 3 periodic 18 
	-76.468210853620974 3 -73.757332344543926 2 -71.023456785508685 2 -66.366766928938404 2 -61.620113622836584 2 
	-56.756832490132567 2 -51.764196554375744 2 -46.886638863543283 2 -42.217498115600897 2 -37.715732820149654 2 
	-33.202007934347577 2 -28.490783262103964 2 -23.755676944757546 2 -18.900815448619227 2 -14.029501320285798 2 
	-9.2481870142722045 2 -4.5795594000641096 2 -0 3 
	-23.994651125866636 5.6925649341145848 15.701435091958388 
	-24.411679227401454 4.9011282630950825 15.828933377628038 
	-24.741114589083246 4.0628917540906562 15.929651875264403 
	-25.212535533489472 2.3163007464650329 16.073779721851601 
	-25.351137318664232 1.4139430225067369 16.116154540089198 
	-25.452195562192728 -1.0470827558152069 16.147051145750183 
	-25.221115747096665 -2.5937436631619493 16.076402956403804 
	-24.189166433598043 -5.5365811567231038 15.760904389557073 
	-23.388961279823988 -6.8966249277640683 15.516257122586143 
	-21.306170383856418 -9.2469620003899653 14.879484042626085 
	-20.033995729373039 -10.202992306025592 14.49054121857829 
	-17.173357386877271 -11.566494461549102 13.615956308720286 
	-15.604347321613535 -11.945928290840756 13.136261792251711 
	-12.456852206524211 -12.042207868283603 12.173975965827648 
	-10.905397669068023 -11.773330035142765 11.699648712839036 
	-8.0547363767649252 -10.65335976713866 10.828114093335383 
	-6.7704912978194161 -9.8365886442753538 10.435480970189444 
	-4.6063019157958767 -7.7798412789779734 9.7738218756177897 
	-3.7322368077261676 -6.5737350988676582 9.5065933544884018 
	-2.4572870566905398 -3.880364282971736 9.1168020982787308 
	-2.0702767250062308 -2.4187526251557196 8.9984811658413371 
	-1.8401032666615968 0.64633741886754581 8.9281100775679345 
	-2.0241098990944084 2.218572025325277 8.9843665506795869 
	-2.9734872269253878 5.2064998624546694 9.274620328078754 
	-3.7311279292946802 6.5881814163212429 9.5062543363294765 
	-5.7388892888970098 8.9996663279155484 10.120088585007064 
	-6.979815709357867 9.9944983693511311 10.499477865175029 
	-9.7614076672322536 11.430618108302621 11.349895869995894 
	-11.277809656320425 11.857059267211319 11.81350648348509 
	-14.349610058855394 12.080376905302934 12.752650113857094 
	-15.879386546551345 11.886966898661354 13.220349721893369 
	-18.748819131988654 10.921703378730953 14.097623301638802 
	-20.069397165989709 10.171197003114974 14.501364523898141 
	-22.346836357052716 8.2120822989514846 15.197647559762494 
	-23.290154426335498 7.029560020462732 15.486048835925356 
	-23.994651125866636 5.6925649341145848 15.701435091958388 
	1.4272641837515882e-05 
	plane 1.3826688818188577 0 7.9428097524270207 0.29237170472273666 0 0.95630475596303555 -0.95630475596303555 0 0.29237170472273666 reverse_v I I I I 
	spline reversed { ref 0 } I I I I 
	nullbs 
	nubs 3 periodic 18 
	-76.468210853620974 3 -73.757332344543926 3 -71.023456785508685 3 -66.366766928938404 3 -61.620113622836584 3 
	-56.756832490132567 3 -51.764196554375744 3 -46.886638863543283 3 -42.217498115600897 3 -37.715732820149654 3 
	-33.202007934347577 3 -28.490783262103964 3 -23.755676944757546 3 -18.900815448619227 3 -14.029501320285798 3 
	-9.2481870142722045 3 -4.5795594000641096 3 -0 3 
	0.64882657182254111 -3.6265478535447206 
	0.65082775627883627 -3.5525400388318014 
	0.65237176788192386 -3.4789598547481591 
	0.65346462198460198 -3.405219835830926 
	0.6545667470377533 -3.3308542621744155 
	0.65520214794447551 -3.2568740975295762 
	0.65537401212590796 -3.1826330604293216 
	0.65566675339122982 -3.0561761398634077 
	0.65462114592659881 -2.9311293199175341 
	0.65222218894844453 -2.8043257703930058 
	0.64977688607831974 -2.6750724797262855 
	0.64597426708859751 -2.5467533940314158 
	0.64078274183636263 -2.4164729341802764 
	0.63546365801435811 -2.2829914133075451 
	0.62878510269440346 -2.1501530873333987 
	0.62078471276272618 -2.0155840405564764 
	0.61257152640087775 -1.8774356916442578 
	0.6031014831876087 -1.740031410838651 
	0.59265267718051007 -1.6013760611745333 
	0.58244471193815461 -1.4659166614042269 
	0.57146040251309038 -1.3315437014323639 
	0.56035384536629396 -1.1964421624262211 
	0.54972186890788588 -1.0671134817898169 
	0.53915657152543495 -0.93924355666857207 
	0.5296040255231832 -0.8108472111017937 
	0.52039391120073764 -0.68705351034646589 
	0.51230889874924224 -0.56491934128773125 
	0.50627517955132917 -0.44211416808690673 
	0.50022543090604088 -0.3189827451888958 
	0.49638363014715603 -0.19753415669333235 
	0.49527292576961818 -0.074954484839274027 
	0.4941136220904141 0.052988708192027695 
	0.49596572085447943 0.17942592555603995 
	0.50054793378665374 0.30764944274832517 
	0.50515337439117336 0.43652293712158852 
	0.51238641530521967 0.56443035220694715 
	0.52126594312515939 0.69429529735979711 
	0.53037004234231755 0.82744464600504752 
	0.54098182948777185 0.95994032916683647 
	0.55196143841647149 1.0941985077435845 
	0.56297825612393737 1.2289116736424355 
	0.57415685722238952 1.3629591210498608 
	0.58472961602192763 1.4982247313500201 
	0.59510703812415555 1.6309912458061666 
	0.60474589009897128 1.7627874572278597 
	0.61331572378515564 1.8953000789822703 
	0.62168358241895638 2.0246896245253563 
	0.62891145343486554 2.1526835164424223 
	0.6349214989852181 2.2811978147445089 
	0.64081688471081522 2.4072603135055703 
	0.64544591752268876 2.5316140774813753 
	0.64882657182254111 2.6566374536348656 
	
	-1 
	-1 
	I I 
	0 
	0 
	0 
	
	-1 
	none F } I I #
simple-snl-attrib $-1 -1 $-1 $260 $237 1 1 1 1 1 1 1 1 1 1 1 1 0 1 0 1 1 1 @17 NEW_SIMPLE_ATTRIB 1 @9 ENTITY_ID 0 3 3 -2147483648 -1 #
integer_attrib-name_attrib-gen-attrib $-1 -1 $292 $-1 $261 2 1 1 1 1 1 1 1 1 1 1 1 1 1 0 1 1 1 @8 CUBIT_ID 3 #
point $-1 -1 -1 $-1 -28 -1.4695761589768236e-15 -20 #
integer_attrib-name_attrib-gen-attrib $-1 -1 $293 $-1 $268 2 1 1 1 1 1 1 1 1 1 1 1 1 1 0 1 1 1 @8 CUBIT_ID 1 #
vertex $294 -1 -1 $-1 $268 $295 #
ellipse-curve $-1 -1 -1 $-1 -16 0 0 0 0 -1 16 0 0 1 I I #
coedge $-1 -1 -1 $-1 $284 $284 $285 $296 reversed $271 $-1 #
coedge $-1 -1 -1 $-1 $273 $272 $284 $296 forward $234 $297 #
edge $298 -1 -1 $-1 $276 0.64350110879328426 $299 1.8675022996339319 $272 $300 forward @7 tangent T -32.000000000000007 -1.9594348786357647e-15 6.7260749920905312 -25.398854897996323 -1.5031499169744672e-15 16.130743268131233 #
pcurve $-1 -1 -1 $-1 0 forward { exppc 2 nubs 1 open 2 
	0 1 1.8675022996339319 1 
	1 -3.1415926535897931 
	0 -3.1415926535897931 
	0 
	-1 
	spline reversed { ref 0 } I I I I 
	} 0 0 #
pcurve $-1 -1 -1 $-1 0 reversed { ref 2 } 0 6.2831853071795862 #
simple-snl-attrib $-1 -1 $-1 $275 $259 1 1 1 1 1 1 1 1 1 1 1 1 0 1 0 1 1 1 @17 NEW_SIMPLE_ATTRIB 1 @9 ENTITY_ID 0 3 15 -2147483648 -1 #
integer_attrib-name_attrib-gen-attrib $-1 -1 $301 $-1 $276 2 1 1 1 1 1 1 1 1 1 1 1 1 1 0 1 1 1 @8 CUBIT_ID 15 #
point $-1 -1 -1 $-1 -25.398854897996323 -1.5031499169744674e-15 16.130743268131233 #
simple-snl-attrib $-1 -1 $-1 $279 $261 1 1 1 1 1 1 1 1 1 1 1 1 0 1 0 1 1 1 @17 NEW_SIMPLE_ATTRIB 1 @9 ENTITY_ID 0 3 3 -2147483648 -1 #
simple-snl-attrib $-1 -1 $-1 $281 $268 1 1 1 1 1 1 1 1 1 1 1 1 0 1 0 1 1 1 @17 NEW_SIMPLE_ATTRIB 1 @9 ENTITY_ID 0 3 1 -2147483648 -1 #
integer_attrib-name_attrib-gen-attrib $-1 -1 $302 $-1 $282 2 1 1 1 1 1 1 1 1 1 1 1 1 1 0 1 1 1 @8 CUBIT_ID 1 #
point $-1 -1 -1 $-1 0 0 0 #
edge $303 -1 -1 $-1 $299 -3.1415926535897931 $299 3.1415926535897931 $284 $304 forward @7 tangent T -32.000000000000007 -16 3.0573068145866054 -3.5527136788005009e-15 16 6.7260749920905312 #
pcurve $-1 -1 -1 $-1 0 forward { exppc 3 nubs 1 periodic 2 
	-3.1415926535897931 1 3.1415926535897931 1 
	0 -3.1415926535897931 
	0 3.1415926535897931 
	0 
	-1 
	spline reversed { ref 0 } I I I I 
	} 0 0 #
integer_attrib-name_attrib-gen-attrib $-1 -1 $305 $-1 $286 2 1 1 1 1 1 1 1 1 1 1 1 1 1 0 1 1 1 @8 CUBIT_ID 16 #
vertex $306 -1 -1 $-1 $296 $307 #
ellipse-curve $-1 -1 -1 $-1 -22.000000000000004 -7.3478807948841188e-16 6.7260749920905276 1.224646799147353e-16 -1 -3.7441210044948723e-17 2.9237170472273668 0 9.5630475596303555 1 F 0 F 1.8675022996339319 #
simple-snl-attrib $-1 -1 $-1 $290 $276 1 1 1 1 1 1 1 1 1 1 1 1 0 1 0 1 1 1 @17 NEW_SIMPLE_ATTRIB 1 @9 ENTITY_ID 0 3 15 -2147483648 -1 #
simple-snl-attrib $-1 -1 $-1 $294 $282 1 1 1 1 1 1 1 1 1 1 1 1 0 1 0 1 1 1 @17 NEW_SIMPLE_ATTRIB 1 @9 ENTITY_ID 0 3 1 -2147483648 -1 #
integer_attrib-name_attrib-gen-attrib $-1 -1 $308 $-1 $296 2 1 1 1 1 1 1 1 1 1 1 1 1 1 0 1 1 1 @8 CUBIT_ID 14 #
ellipse-curve $-1 -1 -1 $-1 -16.000000000000004 0 4.891690903338568 0.11390285741391021 1.5074986719960439e-16 0.99349189180030373 16 0 -1.8343840887519627 0.99349189180030373 I I #
simple-snl-attrib $-1 -1 $-1 $298 $286 1 1 1 1 1 1 1 1 1 1 1 1 0 1 0 1 1 1 @17 NEW_SIMPLE_ATTRIB 1 @9 ENTITY_ID 0 3 16 -2147483648 -1 #
integer_attrib-name_attrib-gen-attrib $-1 -1 $309 $-1 $299 2 1 1 1 1 1 1 1 1 1 1 1 1 1 0 1 1 1 @8 CUBIT_ID 14 #
point $-1 -1 -1 $-1 -32.000000000000007 -1.9594348786357647e-15 6.7260749920905312 #
simple-snl-attrib $-1 -1 $-1 $303 $296 1 1 1 1 1 1 1 1 1 1 1 1 0 1 0 1 1 1 @17 NEW_SIMPLE_ATTRIB 1 @9 ENTITY_ID 0 3 14 -2147483648 -1 #
simple-snl-attrib $-1 -1 $-1 $306 $299 1 1 1 1 1 1 1 1 1 1 1 1 0 1 0 1 1 1 @17 NEW_SIMPLE_ATTRIB 1 @9 ENTITY_ID 0 3 14 -2147483648 -1 #
End-of-ACIS-data 