2800 0 1 0           
10 Cubit 15.6 19 ACIS 28.0.2 Unknown 24 Fri Sep 25 07:28:56 2020 
1 9.9999999999999995e-07 1e-10 
T @77 REBAVW32J83ZKT3WBHB5CCGFV5MCK6P2WCSVG67739NKRR6CF8SMJJ63Q85VJG65UCQKPC637ARVQ 
body $1 -1 -1 $-1 0 $2 $-1 $3 F #
integer_attrib-name_attrib-gen-attrib $-1 -1 $-1 $-1 $0 2 1 1 1 1 1 1 1 1 1 1 1 1 1 0 1 1 1 @8 CUBIT_ID 1 #
lump $4 -1 -1 $-1 $-1 $5 $0 F #
transform $-1 -1 1 0 0 0 1 0 0 0 1 0 0 0 1 no_rotate no_reflect no_shear #
integer_attrib-name_attrib-gen-attrib $-1 -1 $-1 $-1 $2 2 1 1 1 1 1 1 1 1 1 1 1 1 1 0 1 1 1 @8 CUBIT_ID 1 #
shell $-1 -1 -1 $-1 $-1 $-1 $6 $-1 $2 F #
face $7 -1 -1 $-1 $8 $9 $5 $-1 $10 forward single T -30.199999999999992 -14.199999999999992 -14.599999999999993 -1.7999999999999972 14.199999999999992 -14.299999999999992 F #
integer_attrib-name_attrib-gen-attrib $-1 -1 $-1 $-1 $6 2 1 1 1 1 1 1 1 1 1 1 1 1 1 0 1 1 1 @8 CUBIT_ID 18 #
face $11 -1 -1 $-1 $12 $13 $5 $-1 $14 forward single F F #
loop $-1 -1 -1 $-1 $15 $16 $6 T -30.199999999999992 -14.199999999999992 -14.599999999999993 -1.7999999999999972 14.199999999999992 -14.599999999999993 unknown #
cone-surface $-1 -1 -1 $-1 -15.999999999999995 0 -14.599999999999993 0 0 0.99999999999999967 -14.199999999999998 -0 -0 1 I I -0.70710678118654746 0.70710678118654746 14.199999999999998 forward I I I I #
integer_attrib-name_attrib-gen-attrib $-1 -1 $-1 $-1 $8 2 1 1 1 1 1 1 1 1 1 1 1 1 1 0 1 1 1 @8 CUBIT_ID 11 #
face $17 -1 -1 $-1 $18 $19 $5 $-1 $20 forward single F F #
loop $-1 -1 -1 $-1 $21 $22 $8 T -29.899999999999991 -13.899999999999991 -5.700000000000002 -2.0999999999999979 13.899999999999991 -5.700000000000002 unknown #
cone-surface $-1 -1 -1 $-1 -15.999999999999995 0 -9.9999999999999964 0 0 0.99999999999999967 13.899999999999997 0 -4.4408920985006262e-16 1 I I 0 1 13.9 forward I I I I #
loop $-1 -1 -1 $-1 $-1 $23 $6 T -29.899999999999991 -13.899999999999991 -14.299999999999992 -2.0999999999999979 13.899999999999991 -14.299999999999992 unknown #
coedge $-1 -1 -1 $-1 $16 $16 $24 $25 forward $9 $-1 #
integer_attrib-name_attrib-gen-attrib $-1 -1 $-1 $-1 $12 2 1 1 1 1 1 1 1 1 1 1 1 1 1 0 1 1 1 @8 CUBIT_ID 10 #
face $26 -1 -1 $-1 $27 $28 $5 $-1 $29 forward single T -30.199999999999992 -14.199999999999992 -15.299999999999994 -1.7999999999999972 14.199999999999992 -14.999999999999993 F #
loop $-1 -1 -1 $-1 $30 $31 $12 T -30.399999999999991 -14.399999999999991 -14.6 -1.5999999999999996 14.399999999999991 -14.599999999999996 unknown #
plane-surface $-1 -1 -1 $-1 -15.999999999999996 0 -14.599999999999996 0 0 0.99999999999999967 0.99999999999999967 0 0 forward_v I I I I #
loop $-1 -1 -1 $-1 $-1 $32 $8 F unknown #
coedge $-1 -1 -1 $-1 $22 $22 $33 $34 reversed $13 $-1 #
coedge $-1 -1 -1 $-1 $23 $23 $32 $35 forward $15 $-1 #
coedge $-1 -1 -1 $-1 $24 $24 $16 $25 reversed $30 $-1 #
edge $36 -1 -1 $-1 $37 -3.1415926535897931 $37 3.1415926535897931 $24 $38 forward @7 unknown T -30.199999999999992 -14.199999999999992 -14.599999999999993 -1.7999999999999972 14.199999999999992 -14.599999999999993 #
integer_attrib-name_attrib-gen-attrib $-1 -1 $-1 $-1 $18 2 1 1 1 1 1 1 1 1 1 1 1 1 1 0 1 1 1 @8 CUBIT_ID 19 #
face $39 -1 -1 $-1 $40 $41 $5 $-1 $14 forward single T -29.899999999999991 -13.899999999999991 -19.499999999999989 -2.0999999999999979 13.899999999999991 -15.299999999999994 F #
loop $-1 -1 -1 $-1 $42 $43 $18 T -30.199999999999992 -14.199999999999992 -14.999999999999993 -1.7999999999999972 14.199999999999992 -14.999999999999993 unknown #
cone-surface $-1 -1 -1 $-1 -15.999999999999995 0 -14.999999999999993 0 0 -0.99999999999999967 -14.199999999999998 -0 -0 1 I I -0.70710678118654746 0.70710678118654746 14.199999999999998 forward I I I I #
loop $-1 -1 -1 $-1 $-1 $24 $12 F unknown #
coedge $-1 -1 -1 $-1 $31 $31 $44 $45 forward $19 $-1 #
coedge $-1 -1 -1 $-1 $32 $32 $23 $35 reversed $21 $-1 #
coedge $-1 -1 -1 $-1 $33 $33 $22 $34 forward $46 $-1 #
edge $47 -1 -1 $-1 $48 -3.1415926535897931 $48 3.1415926535897931 $22 $49 forward @7 unknown T -29.899999999999991 -13.899999999999991 -5.700000000000002 -2.0999999999999979 13.899999999999991 -5.700000000000002 #
edge $50 -1 -1 $-1 $51 -3.1415926535897931 $51 3.1415926535897931 $32 $52 forward @7 unknown T -29.899999999999991 -13.899999999999991 -14.299999999999992 -2.0999999999999979 13.899999999999991 -14.299999999999992 #
integer_attrib-name_attrib-gen-attrib $-1 -1 $-1 $-1 $25 2 1 1 1 1 1 1 1 1 1 1 1 1 1 0 1 1 1 @8 CUBIT_ID 19 #
vertex $53 -1 -1 $-1 $25 $54 #
ellipse-curve $-1 -1 -1 $-1 -15.999999999999995 0 -14.599999999999993 0 0 0.99999999999999967 -14.199999999999998 0 0 1 I I #
integer_attrib-name_attrib-gen-attrib $-1 -1 $-1 $-1 $27 2 1 1 1 1 1 1 1 1 1 1 1 1 1 0 1 1 1 @8 CUBIT_ID 12 #
face $55 -1 -1 $-1 $56 $57 $5 $-1 $58 forward single T -30.399999999999991 -14.399999999999991 -14.999999999999998 -1.5999999999999979 14.399999999999991 -14.999999999999993 F #
loop $-1 -1 -1 $-1 $59 $60 $27 T -29.899999999999991 -13.899999999999991 -19.499999999999989 -2.0999999999999979 13.899999999999991 -19.499999999999989 unknown #
loop $-1 -1 -1 $-1 $-1 $61 $18 T -29.899999999999991 -13.899999999999991 -15.299999999999994 -2.0999999999999979 13.899999999999991 -15.299999999999994 unknown #
coedge $-1 -1 -1 $-1 $43 $43 $62 $63 forward $28 $-1 #
coedge $-1 -1 -1 $-1 $44 $44 $31 $45 reversed $64 $-1 #
edge $65 -1 -1 $-1 $66 0 $66 6.2831853071795862 $31 $67 forward @7 unknown T -30.399999999999991 -14.399999999999991 -14.6 -1.5999999999999996 14.399999999999991 -14.599999999999996 #
loop $-1 -1 -1 $-1 $-1 $33 $68 T -29.899999999999991 -13.899999999999991 -5.700000000000002 -2.0999999999999979 13.899999999999991 -5.700000000000002 unknown #
integer_attrib-name_attrib-gen-attrib $-1 -1 $-1 $-1 $34 2 1 1 1 1 1 1 1 1 1 1 1 1 1 0 1 1 1 @8 CUBIT_ID 21 #
vertex $69 -1 -1 $-1 $34 $70 #
ellipse-curve $-1 -1 -1 $-1 -15.999999999999995 0 -5.700000000000002 -0 -0 0.99999999999999967 -13.899999999999997 0 -2.2204460492503131e-16 1 I I #
integer_attrib-name_attrib-gen-attrib $-1 -1 $-1 $-1 $35 2 1 1 1 1 1 1 1 1 1 1 1 1 1 0 1 1 1 @8 CUBIT_ID 20 #
vertex $71 -1 -1 $-1 $35 $72 #
ellipse-curve $-1 -1 -1 $-1 -15.999999999999995 0 -14.299999999999992 -0 -0 -0.99999999999999967 -13.899999999999997 0 2.2204460492503131e-16 1 I I #
integer_attrib-name_attrib-gen-attrib $-1 -1 $-1 $-1 $37 2 1 1 1 1 1 1 1 1 1 1 1 1 1 0 1 1 1 @8 CUBIT_ID 18 #
point $-1 -1 -1 $-1 -1.7999999999999972 1.7389984547892402e-15 -14.599999999999993 #
integer_attrib-name_attrib-gen-attrib $-1 -1 $-1 $-1 $40 2 1 1 1 1 1 1 1 1 1 1 1 1 1 0 1 1 1 @8 CUBIT_ID 9 #
face $73 -1 -1 $-1 $74 $75 $5 $-1 $76 forward single T -30.199999999999992 -14.199999999999992 -5.0000000000000044 -1.7999999999999972 14.199999999999992 -4.7000000000000046 F #
loop $-1 -1 -1 $-1 $77 $78 $40 T -30.399999999999991 -14.399999999999991 -14.999999999999998 -1.5999999999999979 14.399999999999991 -14.999999999999996 unknown #
plane-surface $-1 -1 -1 $-1 -15.999999999999995 0 -14.999999999999996 0 0 -0.99999999999999967 -0.99999999999999967 0 0 forward_v I I I I #
loop $-1 -1 -1 $-1 $-1 $79 $27 T -29.899999999999991 -13.899999999999991 -15.299999999999994 -2.0999999999999979 13.899999999999991 -15.299999999999994 unknown #
coedge $-1 -1 -1 $-1 $60 $60 $80 $81 reversed $41 $-1 #
coedge $-1 -1 -1 $-1 $61 $61 $79 $82 forward $42 $-1 #
coedge $-1 -1 -1 $-1 $62 $62 $43 $63 reversed $77 $-1 #
edge $83 -1 -1 $-1 $84 -3.1415926535897931 $84 3.1415926535897931 $62 $85 forward @7 unknown T -30.199999999999992 -14.199999999999992 -14.999999999999993 -1.7999999999999972 14.199999999999992 -14.999999999999993 #
loop $-1 -1 -1 $-1 $-1 $44 $86 T -30.399999999999991 -14.399999999999991 -14.6 -1.5999999999999996 14.399999999999991 -14.599999999999996 unknown #
integer_attrib-name_attrib-gen-attrib $-1 -1 $87 $-1 $45 2 1 1 1 1 1 1 1 1 1 1 1 1 1 0 1 1 1 @8 CUBIT_ID 7 #
vertex $88 -1 -1 $-1 $45 $89 #
ellipse-curve $-1 -1 -1 $-1 -15.999999999999996 0 -14.599999999999996 0 0 0.99999999999999967 14.399999999999997 0 0 1 I I #
face $90 -1 -1 $-1 $91 $92 $5 $-1 $93 forward single T -30.199999999999992 -14.199999999999992 -5.700000000000002 -1.7999999999999972 14.199999999999992 -5.4000000000000021 F #
integer_attrib-name_attrib-gen-attrib $-1 -1 $-1 $-1 $48 2 1 1 1 1 1 1 1 1 1 1 1 1 1 0 1 1 1 @8 CUBIT_ID 20 #
point $-1 -1 -1 $-1 -2.0999999999999979 1.7022590508148195e-15 -5.700000000000002 #
integer_attrib-name_attrib-gen-attrib $-1 -1 $-1 $-1 $51 2 1 1 1 1 1 1 1 1 1 1 1 1 1 0 1 1 1 @8 CUBIT_ID 19 #
point $-1 -1 -1 $-1 -2.0999999999999979 -1.7022590508148195e-15 -14.299999999999992 #
integer_attrib-name_attrib-gen-attrib $-1 -1 $-1 $-1 $56 2 1 1 1 1 1 1 1 1 1 1 1 1 1 0 1 1 1 @8 CUBIT_ID 20 #
face $94 -1 -1 $-1 $95 $96 $5 $-1 $97 forward single T -30.399999999999991 -14.399999999999991 -5.0000000000000044 -1.5999999999999979 14.399999999999991 -5 F #
loop $-1 -1 -1 $-1 $98 $99 $56 T -30.199999999999992 -14.199999999999992 -5.0000000000000044 -1.7999999999999972 14.199999999999992 -5.0000000000000044 unknown #
cone-surface $-1 -1 -1 $-1 -15.999999999999995 0 -5.0000000000000044 0 0 0.99999999999999967 -14.199999999999998 -0 -0 1 I I -0.70710678118654746 0.70710678118654746 14.199999999999998 forward I I I I #
loop $-1 -1 -1 $-1 $-1 $62 $40 T -30.199999999999992 -14.199999999999992 -14.999999999999993 -1.7999999999999972 14.199999999999992 -14.999999999999993 unknown #
coedge $-1 -1 -1 $-1 $78 $78 $100 $101 forward $57 $-1 #
coedge $-1 -1 -1 $-1 $79 $79 $61 $82 reversed $59 $-1 #
coedge $-1 -1 -1 $-1 $80 $80 $60 $81 forward $102 $-1 #
edge $103 -1 -1 $-1 $104 -3.1415926535897931 $104 3.1415926535897931 $60 $105 forward @7 unknown T -29.899999999999991 -13.899999999999991 -19.499999999999989 -2.0999999999999979 13.899999999999991 -19.499999999999989 #
edge $106 -1 -1 $-1 $107 -3.1415926535897931 $107 3.1415926535897931 $79 $108 forward @7 unknown T -29.899999999999991 -13.899999999999991 -15.299999999999994 -2.0999999999999979 13.899999999999991 -15.299999999999994 #
integer_attrib-name_attrib-gen-attrib $-1 -1 $-1 $-1 $63 2 1 1 1 1 1 1 1 1 1 1 1 1 1 0 1 1 1 @8 CUBIT_ID 22 #
vertex $109 -1 -1 $-1 $63 $110 #
ellipse-curve $-1 -1 -1 $-1 -15.999999999999995 0 -14.999999999999993 0 0 -0.99999999999999967 -14.199999999999998 0 0 1 I I #
face $111 -1 -1 $-1 $112 $113 $5 $-1 $114 forward single T -30.399999999999991 -14.399999999999991 -14.999999999999998 -1.5999999999999979 14.399999999999991 -14.599999999999996 F #
simple-snl-attrib $-1 -1 $-1 $65 $45 1 1 1 1 1 1 1 1 1 1 1 1 0 1 0 1 1 1 @17 NEW_SIMPLE_ATTRIB 1 @9 ENTITY_ID 0 3 7 -2147483648 -1 #
integer_attrib-name_attrib-gen-attrib $-1 -1 $115 $-1 $66 2 1 1 1 1 1 1 1 1 1 1 1 1 1 0 1 1 1 @8 CUBIT_ID 7 #
point $-1 -1 -1 $-1 -1.5999999999999996 0 -14.6 #
integer_attrib-name_attrib-gen-attrib $-1 -1 $-1 $-1 $68 2 1 1 1 1 1 1 1 1 1 1 1 1 1 0 1 1 1 @8 CUBIT_ID 21 #
face $116 -1 -1 $-1 $117 $118 $5 $-1 $119 forward single T -30.399999999999991 -14.399999999999991 -5.4000000000000021 -1.5999999999999979 14.399999999999991 -5.3999999999999986 F #
loop $-1 -1 -1 $-1 $46 $120 $68 T -30.199999999999992 -14.199999999999992 -5.4000000000000021 -1.7999999999999972 14.199999999999992 -5.4000000000000021 unknown #
cone-surface $-1 -1 -1 $-1 -15.999999999999995 0 -5.4000000000000021 0 0 -0.99999999999999967 -14.199999999999998 -0 -0 1 I I -0.70710678118654746 0.70710678118654746 14.199999999999998 forward I I I I #
integer_attrib-name_attrib-gen-attrib $-1 -1 $-1 $-1 $74 2 1 1 1 1 1 1 1 1 1 1 1 1 1 0 1 1 1 @8 CUBIT_ID 7 #
face $121 -1 -1 $-1 $68 $122 $5 $-1 $14 forward single T -29.899999999999991 -13.899999999999991 -4.7000000000000046 -2.0999999999999979 13.899999999999991 4.4408920985006262e-16 F #
loop $-1 -1 -1 $-1 $123 $124 $74 T -30.399999999999991 -14.399999999999991 -5.0000000000000009 -1.5999999999999979 14.399999999999991 -5 unknown #
plane-surface $-1 -1 -1 $-1 -15.999999999999995 0 -5.0000000000000009 0 0 0.99999999999999967 0.99999999999999967 0 0 forward_v I I I I #
loop $-1 -1 -1 $-1 $-1 $125 $56 T -29.899999999999991 -13.899999999999991 -4.7000000000000046 -2.0999999999999979 13.899999999999991 -4.7000000000000046 unknown #
coedge $-1 -1 -1 $-1 $99 $99 $126 $127 forward $75 $-1 #
coedge $-1 -1 -1 $-1 $100 $100 $78 $101 reversed $113 $-1 #
edge $128 -1 -1 $-1 $129 0 $129 6.2831853071795862 $78 $130 forward @7 unknown T -30.399999999999991 -14.399999999999991 -14.999999999999998 -1.5999999999999979 14.399999999999991 -14.999999999999996 #
loop $-1 -1 -1 $-1 $131 $80 $117 T -29.899999999999991 -13.899999999999991 -19.499999999999989 -2.0999999999999979 13.899999999999991 -19.499999999999989 unknown #
integer_attrib-name_attrib-gen-attrib $-1 -1 $132 $-1 $81 2 1 1 1 1 1 1 1 1 1 1 1 1 1 0 1 1 1 @8 CUBIT_ID 17 #
vertex $133 -1 -1 $-1 $81 $134 #
ellipse-curve $-1 -1 -1 $-1 -15.999999999999995 0 -19.499999999999989 0 0 -0.99999999999999967 -13.899999999999997 0 3.3306690738754696e-16 1 I I #
integer_attrib-name_attrib-gen-attrib $-1 -1 $-1 $-1 $82 2 1 1 1 1 1 1 1 1 1 1 1 1 1 0 1 1 1 @8 CUBIT_ID 23 #
vertex $135 -1 -1 $-1 $82 $136 #
ellipse-curve $-1 -1 -1 $-1 -15.999999999999995 0 -15.299999999999994 -0 -0 0.99999999999999967 -13.899999999999997 0 -2.2204460492503131e-16 1 I I #
integer_attrib-name_attrib-gen-attrib $-1 -1 $-1 $-1 $84 2 1 1 1 1 1 1 1 1 1 1 1 1 1 0 1 1 1 @8 CUBIT_ID 21 #
point $-1 -1 -1 $-1 -1.7999999999999972 -1.7389984547892402e-15 -14.999999999999993 #
integer_attrib-name_attrib-gen-attrib $-1 -1 $137 $-1 $86 2 1 1 1 1 1 1 1 1 1 1 1 1 1 0 1 1 1 @8 CUBIT_ID 4 #
face $138 -1 -1 $-1 $139 $140 $5 $-1 $141 forward single T -27.999999999999993 -11.999999999999993 0 -3.9999999999999982 11.999999999999993 0 F #
loop $-1 -1 -1 $-1 $64 $100 $86 T -30.399999999999991 -14.399999999999991 -14.999999999999998 -1.5999999999999979 14.399999999999991 -14.999999999999996 unknown #
cone-surface $-1 -1 -1 $-1 -15.999999999999995 0 -14.799999999999995 0 0 0.99999999999999967 14.399999999999997 0 0 1 I I 0 1 14.4 forward I I I I #
simple-snl-attrib $-1 -1 $-1 $88 $66 1 1 1 1 1 1 1 1 1 1 1 1 0 1 0 1 1 1 @17 NEW_SIMPLE_ATTRIB 1 @9 ENTITY_ID 0 3 7 -2147483648 -1 #
integer_attrib-name_attrib-gen-attrib $-1 -1 $-1 $-1 $91 2 1 1 1 1 1 1 1 1 1 1 1 1 1 0 1 1 1 @8 CUBIT_ID 6 #
face $142 -1 -1 $-1 $143 $102 $5 $-1 $144 forward single T -29.899999999999991 -13.899999999999991 -19.999999999999989 -2.0999999999999979 13.899999999999991 -19.499999999999989 F #
loop $-1 -1 -1 $-1 $145 $146 $91 T -30.399999999999991 -14.399999999999991 -5.3999999999999986 -1.5999999999999979 14.399999999999991 -5.3999999999999986 unknown #
plane-surface $-1 -1 -1 $-1 -15.999999999999995 0 -5.3999999999999986 0 0 -0.99999999999999967 -0.99999999999999967 0 0 forward_v I I I I #
coedge $-1 -1 -1 $-1 $120 $120 $147 $148 forward $92 $-1 #
integer_attrib-name_attrib-gen-attrib $-1 -1 $-1 $-1 $95 2 1 1 1 1 1 1 1 1 1 1 1 1 1 0 1 1 1 @8 CUBIT_ID 8 #
loop $-1 -1 -1 $-1 $149 $150 $95 T -29.899999999999991 -13.899999999999991 -4.4408920985006262e-16 -2.0999999999999979 13.899999999999991 4.4408920985006262e-16 unknown #
loop $-1 -1 -1 $-1 $-1 $126 $74 T -30.199999999999992 -14.199999999999992 -5.0000000000000044 -1.7999999999999972 14.199999999999992 -5.0000000000000044 unknown #
coedge $-1 -1 -1 $-1 $124 $124 $151 $152 forward $96 $-1 #
coedge $-1 -1 -1 $-1 $125 $125 $153 $154 forward $98 $-1 #
coedge $-1 -1 -1 $-1 $126 $126 $99 $127 reversed $123 $-1 #
edge $155 -1 -1 $-1 $156 -3.1415926535897931 $156 3.1415926535897931 $126 $157 forward @7 unknown T -30.199999999999992 -14.199999999999992 -5.0000000000000044 -1.7999999999999972 14.199999999999992 -5.0000000000000044 #
integer_attrib-name_attrib-gen-attrib $-1 -1 $158 $-1 $101 2 1 1 1 1 1 1 1 1 1 1 1 1 1 0 1 1 1 @8 CUBIT_ID 6 #
vertex $159 -1 -1 $-1 $101 $160 #
ellipse-curve $-1 -1 -1 $-1 -15.999999999999995 0 -14.999999999999996 0 0 -0.99999999999999967 14.399999999999997 0 0 1 I I #
loop $-1 -1 -1 $-1 $-1 $161 $117 T -29.399999999999991 -13.399999999999991 -19.999999999999989 -2.5999999999999979 13.399999999999991 -19.999999999999989 unknown #
simple-snl-attrib $-1 -1 $-1 $103 $81 1 1 1 1 1 1 1 1 1 1 1 1 0 1 0 1 1 1 @17 NEW_SIMPLE_ATTRIB 1 @9 ENTITY_ID 0 3 17 -2147483648 -1 #
integer_attrib-name_attrib-gen-attrib $-1 -1 $162 $-1 $104 2 1 1 1 1 1 1 1 1 1 1 1 1 1 0 1 1 1 @8 CUBIT_ID 16 #
point $-1 -1 -1 $-1 -2.0999999999999979 -1.7022590508148195e-15 -19.499999999999989 #
integer_attrib-name_attrib-gen-attrib $-1 -1 $-1 $-1 $107 2 1 1 1 1 1 1 1 1 1 1 1 1 1 0 1 1 1 @8 CUBIT_ID 22 #
point $-1 -1 -1 $-1 -2.0999999999999979 1.7022590508148195e-15 -15.299999999999994 #
simple-snl-attrib $-1 -1 $-1 $111 $86 1 1 1 1 1 1 1 1 1 1 1 1 0 1 0 1 1 1 @17 NEW_SIMPLE_ATTRIB 1 @9 ENTITY_ID 0 3 4 -2147483648 -1 #
integer_attrib-name_attrib-gen-attrib $-1 -1 $163 $-1 $112 2 1 1 1 1 1 1 1 1 1 1 1 1 1 0 1 1 1 @8 CUBIT_ID 1 #
face $164 -1 -1 $-1 $165 $166 $5 $-1 $167 reversed single T -27.999999999999993 -11.999999999999993 -19.999999999999996 -3.9999999999999982 11.999999999999993 0 F #
loop $-1 -1 -1 $-1 $-1 $168 $112 T -27.999999999999993 -11.999999999999993 0 -3.9999999999999982 11.999999999999993 0 unknown #
plane-surface $-1 -1 -1 $-1 -15.999999999999995 0 0 0 0 -0.99999999999999967 -0.99999999999999967 0 0 forward_v I I I I #
integer_attrib-name_attrib-gen-attrib $-1 -1 $169 $-1 $117 2 1 1 1 1 1 1 1 1 1 1 1 1 1 0 1 1 1 @8 CUBIT_ID 17 #
face $170 -1 -1 $-1 $171 $172 $5 $-1 $173 forward single T -29.399999999999991 -13.399999999999991 -19.999999999999996 -2.5999999999999979 13.399999999999991 -19.999999999999989 F #
cone-surface $-1 -1 -1 $-1 -15.999999999999995 0 -19.999999999999989 0 0 -0.99999999999999967 -13.399999999999997 -0 -0 1 I I -0.70710678118654746 0.70710678118654746 13.399999999999997 forward I I I I #
loop $-1 -1 -1 $-1 $-1 $147 $91 T -30.199999999999992 -14.199999999999992 -5.4000000000000021 -1.7999999999999972 14.199999999999992 -5.4000000000000021 unknown #
coedge $-1 -1 -1 $-1 $146 $146 $174 $175 forward $118 $-1 #
coedge $-1 -1 -1 $-1 $147 $147 $120 $148 reversed $145 $-1 #
edge $176 -1 -1 $-1 $177 -3.1415926535897931 $177 3.1415926535897931 $147 $178 forward @7 unknown T -30.199999999999992 -14.199999999999992 -5.4000000000000021 -1.7999999999999972 14.199999999999992 -5.4000000000000021 #
loop $-1 -1 -1 $-1 $-1 $153 $95 T -29.899999999999991 -13.899999999999991 -4.7000000000000046 -2.0999999999999979 13.899999999999991 -4.7000000000000046 unknown #
coedge $-1 -1 -1 $-1 $150 $150 $179 $180 reversed $122 $-1 #
coedge $-1 -1 -1 $-1 $151 $151 $124 $152 reversed $181 $-1 #
edge $182 -1 -1 $-1 $183 0 $183 6.2831853071795862 $124 $184 forward @7 unknown T -30.399999999999991 -14.399999999999991 -5.0000000000000009 -1.5999999999999979 14.399999999999991 -5 #
coedge $-1 -1 -1 $-1 $153 $153 $125 $154 reversed $149 $-1 #
edge $185 -1 -1 $-1 $186 -3.1415926535897931 $186 3.1415926535897931 $153 $187 forward @7 unknown T -29.899999999999991 -13.899999999999991 -4.7000000000000046 -2.0999999999999979 13.899999999999991 -4.7000000000000046 #
integer_attrib-name_attrib-gen-attrib $-1 -1 $-1 $-1 $127 2 1 1 1 1 1 1 1 1 1 1 1 1 1 0 1 1 1 @8 CUBIT_ID 24 #
vertex $188 -1 -1 $-1 $127 $189 #
ellipse-curve $-1 -1 -1 $-1 -15.999999999999995 0 -5.0000000000000044 0 0 0.99999999999999967 -14.199999999999998 0 0 1 I I #
simple-snl-attrib $-1 -1 $-1 $128 $101 1 1 1 1 1 1 1 1 1 1 1 1 0 1 0 1 1 1 @17 NEW_SIMPLE_ATTRIB 1 @9 ENTITY_ID 0 3 6 -2147483648 -1 #
integer_attrib-name_attrib-gen-attrib $-1 -1 $190 $-1 $129 2 1 1 1 1 1 1 1 1 1 1 1 1 1 0 1 1 1 @8 CUBIT_ID 6 #
point $-1 -1 -1 $-1 -1.5999999999999992 0 -14.999999999999998 #
coedge $-1 -1 -1 $-1 $161 $161 $191 $192 forward $131 $-1 #
simple-snl-attrib $-1 -1 $-1 $133 $104 1 1 1 1 1 1 1 1 1 1 1 1 0 1 0 1 1 1 @17 NEW_SIMPLE_ATTRIB 1 @9 ENTITY_ID 0 3 16 -2147483648 -1 #
simple-snl-attrib $-1 -1 $-1 $138 $112 1 1 1 1 1 1 1 1 1 1 1 1 0 1 0 1 1 1 @17 NEW_SIMPLE_ATTRIB 1 @9 ENTITY_ID 0 3 1 -2147483648 -1 #
integer_attrib-name_attrib-gen-attrib $-1 -1 $193 $-1 $139 2 1 1 1 1 1 1 1 1 1 1 1 1 1 0 1 1 1 @8 CUBIT_ID 13 #
face $194 -1 -1 $-1 $-1 $195 $5 $-1 $196 forward single T -31.999999999999989 -15.999999999999989 -4.4408920985006262e-16 0 15.999999999999989 4.4408920985006262e-16 F #
loop $-1 -1 -1 $-1 $197 $198 $139 T -27.999999999999993 -11.999999999999993 0 -3.9999999999999982 11.999999999999993 0 unknown #
cone-surface $-1 -1 -1 $-1 -15.999999999999995 0 0 0 0 0.99999999999999967 11.999999999999996 0 0 1 I I 0 1 12 forward I I I I #
coedge $-1 -1 -1 $-1 $168 $168 $198 $199 reversed $140 $-1 #
simple-snl-attrib $-1 -1 $-1 $142 $117 1 1 1 1 1 1 1 1 1 1 1 1 0 1 0 1 1 1 @17 NEW_SIMPLE_ATTRIB 1 @9 ENTITY_ID 0 3 17 -2147483648 -1 #
integer_attrib-name_attrib-gen-attrib $-1 -1 $200 $-1 $143 2 1 1 1 1 1 1 1 1 1 1 1 1 1 0 1 1 1 @8 CUBIT_ID 2 #
face $201 -1 -1 $-1 $202 $203 $5 $-1 $204 reversed single T -26.529871422732338 -12.020885003788303 8.5966265740412773 -2.6837496439200033 12.018020875738223 12.801348814376686 F #
loop $-1 -1 -1 $-1 $205 $206 $143 T -27.999999999999993 -11.999999999999993 -19.999999999999996 -4 11.999999999999993 -19.999999999999996 unknown #
plane-surface $-1 -1 -1 $-1 -15.999999999999996 0 -19.999999999999996 0 0 -0.99999999999999967 -0.99999999999999967 0 0 forward_v I I I I #
coedge $-1 -1 -1 $-1 $174 $174 $146 $175 reversed $207 $-1 #
edge $208 -1 -1 $-1 $209 0 $209 6.2831853071795862 $146 $210 forward @7 unknown T -30.399999999999991 -14.399999999999991 -5.3999999999999986 -1.5999999999999979 14.399999999999991 -5.3999999999999986 #
integer_attrib-name_attrib-gen-attrib $-1 -1 $-1 $-1 $148 2 1 1 1 1 1 1 1 1 1 1 1 1 1 0 1 1 1 @8 CUBIT_ID 26 #
vertex $211 -1 -1 $-1 $148 $212 #
ellipse-curve $-1 -1 -1 $-1 -15.999999999999995 0 -5.4000000000000021 0 0 -0.99999999999999967 -14.199999999999998 0 0 1 I I #
coedge $-1 -1 -1 $-1 $179 $179 $150 $180 forward $195 $-1 #
edge $213 -1 -1 $-1 $214 0 $214 6.2831853071795862 $179 $215 forward @7 unknown T -29.899999999999991 -13.899999999999991 -4.4408920985006262e-16 -2.0999999999999979 13.899999999999991 4.4408920985006262e-16 #
loop $-1 -1 -1 $-1 $-1 $151 $216 T -30.399999999999991 -14.399999999999991 -5.0000000000000009 -1.5999999999999979 14.399999999999991 -5 unknown #
integer_attrib-name_attrib-gen-attrib $-1 -1 $217 $-1 $152 2 1 1 1 1 1 1 1 1 1 1 1 1 1 0 1 1 1 @8 CUBIT_ID 9 #
vertex $218 -1 -1 $-1 $152 $219 #
ellipse-curve $-1 -1 -1 $-1 -15.999999999999995 0 -5.0000000000000009 0 0 0.99999999999999967 14.399999999999997 0 0 1 I I #
integer_attrib-name_attrib-gen-attrib $-1 -1 $-1 $-1 $154 2 1 1 1 1 1 1 1 1 1 1 1 1 1 0 1 1 1 @8 CUBIT_ID 25 #
vertex $220 -1 -1 $-1 $154 $221 #
ellipse-curve $-1 -1 -1 $-1 -15.999999999999995 0 -4.7000000000000046 -0 -0 -0.99999999999999967 -13.899999999999997 0 2.2204460492503131e-16 1 I I #
integer_attrib-name_attrib-gen-attrib $-1 -1 $-1 $-1 $156 2 1 1 1 1 1 1 1 1 1 1 1 1 1 0 1 1 1 @8 CUBIT_ID 23 #
point $-1 -1 -1 $-1 -1.7999999999999972 1.7389984547892402e-15 -5.0000000000000044 #
simple-snl-attrib $-1 -1 $-1 $159 $129 1 1 1 1 1 1 1 1 1 1 1 1 0 1 0 1 1 1 @17 NEW_SIMPLE_ATTRIB 1 @9 ENTITY_ID 0 3 6 -2147483648 -1 #
coedge $-1 -1 -1 $-1 $191 $191 $161 $192 reversed $205 $-1 #
edge $222 -1 -1 $-1 $223 -3.1415926535897931 $223 3.1415926535897931 $191 $224 forward @7 unknown T -29.399999999999991 -13.399999999999991 -19.999999999999989 -2.5999999999999979 13.399999999999991 -19.999999999999989 #
simple-snl-attrib $-1 -1 $-1 $164 $139 1 1 1 1 1 1 1 1 1 1 1 1 0 1 0 1 1 1 @17 NEW_SIMPLE_ATTRIB 1 @9 ENTITY_ID 0 3 13 -2147483648 -1 #
integer_attrib-name_attrib-gen-attrib $-1 -1 $225 $-1 $165 2 1 1 1 1 1 1 1 1 1 1 1 1 1 0 1 1 1 @8 CUBIT_ID 3 #
loop $-1 -1 -1 $-1 $226 $179 $165 T -29.899999999999991 -13.899999999999991 -4.4408920985006262e-16 -2.0999999999999979 13.899999999999991 4.4408920985006262e-16 unknown #
plane-surface $-1 -1 -1 $-1 -15.999999999999995 0 0 0 0 -0.99999999999999967 -0.99999999999999967 0 0 forward_v I I I I #
loop $-1 -1 -1 $-1 $-1 $227 $139 T -27.999999999999993 -11.999999999999993 -19.999999999999996 -4 11.999999999999993 -19.999999999999996 unknown #
coedge $-1 -1 -1 $-1 $198 $198 $168 $199 forward $166 $-1 #
edge $228 -1 -1 $-1 $229 -3.1415926535897931 $229 3.1415926535897931 $198 $230 forward @7 unknown T -27.999999999999993 -11.999999999999993 0 -3.9999999999999982 11.999999999999993 0 #
simple-snl-attrib $-1 -1 $-1 $170 $143 1 1 1 1 1 1 1 1 1 1 1 1 0 1 0 1 1 1 @17 NEW_SIMPLE_ATTRIB 1 @9 ENTITY_ID 0 3 2 -2147483648 -1 #
integer_attrib-name_attrib-gen-attrib $-1 -1 $231 $-1 $171 2 1 1 1 1 1 1 1 1 1 1 1 1 1 0 1 1 1 @8 CUBIT_ID 15 #
face $232 -1 -1 $-1 $233 $234 $5 $-1 $235 forward single T -32.046252368129252 -16.425196548988605 1.7098775825767454 0.15423140192894666 16.318656923258615 12.845736584747307 F #
loop $-1 -1 -1 $-1 $-1 $236 $171 T -26.529871422732338 -12.020885003788303 8.5966265740412773 -2.6837496439200033 12.018020875738223 12.801348814376686 unknown #
plane-surface $-1 -1 -1 $-1 0.40437766832323452 0 8.0521102017645934 -0.1736481776669303 0 -0.98480775301220791 -0.98480775301220791 0 0.1736481776669303 forward_v I I I I #
loop $-1 -1 -1 $-1 $-1 $191 $143 T -29.399999999999991 -13.399999999999991 -19.999999999999989 -2.5999999999999979 13.399999999999991 -19.999999999999989 unknown #
coedge $-1 -1 -1 $-1 $206 $206 $227 $237 forward $172 $-1 #
loop $-1 -1 -1 $-1 $181 $174 $216 T -30.399999999999991 -14.399999999999991 -5.3999999999999986 -1.5999999999999979 14.399999999999991 -5.3999999999999986 unknown #
integer_attrib-name_attrib-gen-attrib $-1 -1 $238 $-1 $175 2 1 1 1 1 1 1 1 1 1 1 1 1 1 0 1 1 1 @8 CUBIT_ID 8 #
vertex $239 -1 -1 $-1 $175 $240 #
ellipse-curve $-1 -1 -1 $-1 -15.999999999999995 0 -5.3999999999999986 0 0 -0.99999999999999967 14.399999999999997 0 0 1 I I #
integer_attrib-name_attrib-gen-attrib $-1 -1 $-1 $-1 $177 2 1 1 1 1 1 1 1 1 1 1 1 1 1 0 1 1 1 @8 CUBIT_ID 25 #
point $-1 -1 -1 $-1 -1.7999999999999972 -1.7389984547892402e-15 -5.4000000000000021 #
integer_attrib-name_attrib-gen-attrib $-1 -1 $241 $-1 $180 2 1 1 1 1 1 1 1 1 1 1 1 1 1 0 1 1 1 @8 CUBIT_ID 5 #
vertex $242 -1 -1 $-1 $180 $243 #
ellipse-curve $-1 -1 -1 $-1 -15.999999999999995 0 0 0 0 0.99999999999999967 13.899999999999997 0 -4.4408920985006262e-16 1 I I #
face $244 -1 -1 $-1 $86 $207 $5 $-1 $245 forward single T -30.399999999999991 -14.399999999999991 -5.3999999999999986 -1.5999999999999979 14.399999999999991 -5 F #
simple-snl-attrib $-1 -1 $-1 $182 $152 1 1 1 1 1 1 1 1 1 1 1 1 0 1 0 1 1 1 @17 NEW_SIMPLE_ATTRIB 1 @9 ENTITY_ID 0 3 9 -2147483648 -1 #
integer_attrib-name_attrib-gen-attrib $-1 -1 $246 $-1 $183 2 1 1 1 1 1 1 1 1 1 1 1 1 1 0 1 1 1 @8 CUBIT_ID 9 #
point $-1 -1 -1 $-1 -1.5999999999999992 0 -5 #
integer_attrib-name_attrib-gen-attrib $-1 -1 $-1 $-1 $186 2 1 1 1 1 1 1 1 1 1 1 1 1 1 0 1 1 1 @8 CUBIT_ID 24 #
point $-1 -1 -1 $-1 -2.0999999999999979 -1.7022590508148195e-15 -4.7000000000000046 #
integer_attrib-name_attrib-gen-attrib $-1 -1 $247 $-1 $192 2 1 1 1 1 1 1 1 1 1 1 1 1 1 0 1 1 1 @8 CUBIT_ID 18 #
vertex $248 -1 -1 $-1 $192 $249 #
ellipse-curve $-1 -1 -1 $-1 -15.999999999999995 0 -19.999999999999989 -0 -0 0.99999999999999967 -13.399999999999997 0 0 1 I I #
simple-snl-attrib $-1 -1 $-1 $194 $165 1 1 1 1 1 1 1 1 1 1 1 1 0 1 0 1 1 1 @17 NEW_SIMPLE_ATTRIB 1 @9 ENTITY_ID 0 3 3 -2147483648 -1 #
loop $-1 -1 -1 $-1 $-1 $250 $165 T -31.999999999999989 -15.999999999999989 0 0 15.999999999999989 0 unknown #
coedge $-1 -1 -1 $-1 $227 $227 $206 $237 reversed $197 $-1 #
integer_attrib-name_attrib-gen-attrib $-1 -1 $251 $-1 $199 2 1 1 1 1 1 1 1 1 1 1 1 1 1 0 1 1 1 @8 CUBIT_ID 4 #
vertex $252 -1 -1 $-1 $199 $253 #
ellipse-curve $-1 -1 -1 $-1 -15.999999999999995 0 0 0 0 0.99999999999999967 11.999999999999996 0 0 1 I I #
simple-snl-attrib $-1 -1 $-1 $201 $171 1 1 1 1 1 1 1 1 1 1 1 1 0 1 0 1 1 1 @17 NEW_SIMPLE_ATTRIB 1 @9 ENTITY_ID 0 3 15 -2147483648 -1 #
integer_attrib-name_attrib-gen-attrib $-1 -1 $254 $-1 $202 2 1 1 1 1 1 1 1 1 1 1 1 1 1 0 1 1 1 @8 CUBIT_ID 16 #
face $255 -1 -1 $-1 $216 $256 $5 $-1 $257 forward single T -31.999999999999996 -15.999999999999993 0 0 15.999999999999993 3.8791935755862221 F #
loop $-1 -1 -1 $-1 $-1 $258 $202 T -31.999999999999996 -15.999999999999993 1.7632698070846426 -3.5527136788005009e-15 15.999999999999993 12.801348814376686 unknown #
spline-surface $-1 -1 -1 $-1 reversed { rbblnsur 0 @11 blendsupsur cone -15.999999999999995 0 15.999999999999995 0 0 0.99999999999999967 15.999999999999995 0 0 1 I I 0 1 16 forward I I I I null_curve nullbs 0 0 0 
	@11 blendsupsur plane 0.75167402365709513 0 10.02172570778901 0.1736481776669303 0 0.98480775301220791 -0.98480775301220791 0 0.1736481776669303 reverse_v I I I I null_curve nullbs 0 0 0 
	42 1e-08 
	ellipse -15.999999999999996 0 2.8212316913354387 0.1736481776669303 0 0.98480775301220791 5.9999999999999956 0 -1.057961884250789 0.9848077530122078 I I 
	null_curve 
	null_curve 
	null_curve 
	null_curve 
	-10 -10 
	no_radius 
	F 0 F 1 
	I I 
	1 0.050000000000000003 0.046252368129254783 
	T 
	1 
	summary 4 0 0.33333333333333331 0.66666666666666663 1 10 -3.1415926535897931 -2.8461503276861309 -2.3734426062402711 -1.6785977736532454 -0.85635957548953079 -0.025469916921504687 0.80772422626338825 1.6410212362003691 2.4721047077712672 3.1415926535897931 0.046252368129254783 OPEN PERIODIC NON_SINGULAR NON_SINGULAR 
	0 
	0 
	0 
	0 
	0 
	0 
	} F 0 F 0.63133626881002225 I I #
coedge $-1 -1 -1 $-1 $236 $236 $258 $259 forward $203 $-1 #
edge $260 -1 -1 $-1 $261 -3.1415926535897931 $261 3.1415926535897931 $206 $262 forward @7 unknown T -27.999999999999993 -11.999999999999993 -19.999999999999996 -4 11.999999999999993 -19.999999999999996 #
simple-snl-attrib $-1 -1 $-1 $208 $175 1 1 1 1 1 1 1 1 1 1 1 1 0 1 0 1 1 1 @17 NEW_SIMPLE_ATTRIB 1 @9 ENTITY_ID 0 3 8 -2147483648 -1 #
integer_attrib-name_attrib-gen-attrib $-1 -1 $263 $-1 $209 2 1 1 1 1 1 1 1 1 1 1 1 1 1 0 1 1 1 @8 CUBIT_ID 8 #
point $-1 -1 -1 $-1 -1.5999999999999992 0 -5.3999999999999986 #
simple-snl-attrib $-1 -1 $-1 $213 $180 1 1 1 1 1 1 1 1 1 1 1 1 0 1 0 1 1 1 @17 NEW_SIMPLE_ATTRIB 1 @9 ENTITY_ID 0 3 5 -2147483648 -1 #
integer_attrib-name_attrib-gen-attrib $-1 -1 $264 $-1 $214 2 1 1 1 1 1 1 1 1 1 1 1 1 1 0 1 1 1 @8 CUBIT_ID 5 #
point $-1 -1 -1 $-1 -2.0999999999999992 0 0 #
integer_attrib-name_attrib-gen-attrib $-1 -1 $265 $-1 $216 2 1 1 1 1 1 1 1 1 1 1 1 1 1 0 1 1 1 @8 CUBIT_ID 5 #
cone-surface $-1 -1 -1 $-1 -15.999999999999995 0 -5.2000000000000002 0 0 0.99999999999999967 14.399999999999997 0 0 1 I I 0 1 14.4 forward I I I I #
simple-snl-attrib $-1 -1 $-1 $218 $183 1 1 1 1 1 1 1 1 1 1 1 1 0 1 0 1 1 1 @17 NEW_SIMPLE_ATTRIB 1 @9 ENTITY_ID 0 3 9 -2147483648 -1 #
simple-snl-attrib $-1 -1 $-1 $222 $192 1 1 1 1 1 1 1 1 1 1 1 1 0 1 0 1 1 1 @17 NEW_SIMPLE_ATTRIB 1 @9 ENTITY_ID 0 3 18 -2147483648 -1 #
integer_attrib-name_attrib-gen-attrib $-1 -1 $266 $-1 $223 2 1 1 1 1 1 1 1 1 1 1 1 1 1 0 1 1 1 @8 CUBIT_ID 17 #
point $-1 -1 -1 $-1 -2.5999999999999979 1.6410267108574519e-15 -19.999999999999989 #
coedge $-1 -1 -1 $-1 $250 $250 $267 $268 forward $226 $-1 #
simple-snl-attrib $-1 -1 $-1 $228 $199 1 1 1 1 1 1 1 1 1 1 1 1 0 1 0 1 1 1 @17 NEW_SIMPLE_ATTRIB 1 @9 ENTITY_ID 0 3 4 -2147483648 -1 #
integer_attrib-name_attrib-gen-attrib $-1 -1 $269 $-1 $229 2 1 1 1 1 1 1 1 1 1 1 1 1 1 0 1 1 1 @8 CUBIT_ID 4 #
point $-1 -1 -1 $-1 -27.999999999999993 -1.4695761589768236e-15 0 #
simple-snl-attrib $-1 -1 $-1 $232 $202 1 1 1 1 1 1 1 1 1 1 1 1 0 1 0 1 1 1 @17 NEW_SIMPLE_ATTRIB 1 @9 ENTITY_ID 0 3 16 -2147483648 -1 #
integer_attrib-name_attrib-gen-attrib $-1 -1 $270 $-1 $233 2 1 1 1 1 1 1 1 1 1 1 1 1 1 0 1 1 1 @8 CUBIT_ID 14 #
loop $-1 -1 -1 $-1 $271 $267 $233 T -31.999999999999989 -15.999999999999989 0 0 15.999999999999989 0 unknown #
cone-surface $-1 -1 -1 $-1 -15.999999999999995 0 15.999999999999995 0 0 0.99999999999999967 15.999999999999995 0 0 1 I I 0 1 16 forward I I I I #
coedge $-1 -1 -1 $-1 $272 $273 $236 $259 reversed $234 $274 #
edge $275 -1 -1 $-1 $276 -70.819426428486196 $276 5.0884940824757336 $258 $277 forward @7 unknown T -26.529871422732338 -12.020885003788303 8.5966265740412773 -2.6837496439200033 12.018020875738223 12.801348814376686 #
integer_attrib-name_attrib-gen-attrib $-1 -1 $278 $-1 $237 2 1 1 1 1 1 1 1 1 1 1 1 1 1 0 1 1 1 @8 CUBIT_ID 3 #
vertex $279 -1 -1 $-1 $237 $280 #
ellipse-curve $-1 -1 -1 $-1 -15.999999999999996 0 -19.999999999999996 0 0 0.99999999999999967 11.999999999999996 0 0 1 I I #
simple-snl-attrib $-1 -1 $-1 $239 $209 1 1 1 1 1 1 1 1 1 1 1 1 0 1 0 1 1 1 @17 NEW_SIMPLE_ATTRIB 1 @9 ENTITY_ID 0 3 8 -2147483648 -1 #
simple-snl-attrib $-1 -1 $-1 $242 $214 1 1 1 1 1 1 1 1 1 1 1 1 0 1 0 1 1 1 @17 NEW_SIMPLE_ATTRIB 1 @9 ENTITY_ID 0 3 5 -2147483648 -1 #
simple-snl-attrib $-1 -1 $-1 $244 $216 1 1 1 1 1 1 1 1 1 1 1 1 0 1 0 1 1 1 @17 NEW_SIMPLE_ATTRIB 1 @9 ENTITY_ID 0 3 5 -2147483648 -1 #
simple-snl-attrib $-1 -1 $-1 $248 $223 1 1 1 1 1 1 1 1 1 1 1 1 0 1 0 1 1 1 @17 NEW_SIMPLE_ATTRIB 1 @9 ENTITY_ID 0 3 17 -2147483648 -1 #
coedge $-1 -1 -1 $-1 $267 $267 $250 $268 reversed $256 $-1 #
edge $281 -1 -1 $-1 $282 0 $282 6.2831853071795862 $250 $283 forward @7 unknown T -31.999999999999989 -15.999999999999989 0 0 15.999999999999989 0 #
simple-snl-attrib $-1 -1 $-1 $252 $229 1 1 1 1 1 1 1 1 1 1 1 1 0 1 0 1 1 1 @17 NEW_SIMPLE_ATTRIB 1 @9 ENTITY_ID 0 3 4 -2147483648 -1 #
simple-snl-attrib $-1 -1 $-1 $255 $233 1 1 1 1 1 1 1 1 1 1 1 1 0 1 0 1 1 1 @17 NEW_SIMPLE_ATTRIB 1 @9 ENTITY_ID 0 3 14 -2147483648 -1 #
loop $-1 -1 -1 $-1 $-1 $284 $233 T -31.999999999999996 -15.999999999999993 1.7632698070846426 -3.5527136788005009e-15 15.999999999999993 3.8791935755862221 unknown #
coedge $-1 -1 -1 $-1 $285 $258 $273 $286 forward $234 $287 #
coedge $-1 -1 -1 $-1 $258 $285 $272 $286 reversed $234 $288 #
pcurve $-1 -1 -1 $-1 -2 $277 0 0 #
integer_attrib-name_attrib-gen-attrib $-1 -1 $289 $-1 $259 2 1 1 1 1 1 1 1 1 1 1 1 1 1 0 1 1 1 @8 CUBIT_ID 15 #
vertex $290 -1 -1 $-1 $286 $291 #
intcurve-curve $-1 -1 -1 $-1 forward { surfintcur 1 full nubs 3 periodic 18 
	-75.907920510961929 3 -73.289483335834589 2 -70.664650685184284 2 -65.977608439258759 2 -61.235178240445677 2 
	-56.451976339646009 2 -51.670255369234212 2 -46.936786378226529 2 -42.271166968462332 2 -37.647672537169882 2 
	-33.008476205367252 2 -28.309072468094534 2 -23.554176271268204 2 -18.781128949237356 2 -14.026325669312229 2 
	-9.3118765540572479 2 -4.6417358215161082 2 -0 3 
	-25.468158505546906 4.9302901538994526 12.614136388559626 
	-25.823558917997492 4.135579574531457 12.67680307022958 
	-26.092143038056967 3.3038221796628218 12.724161697199937 
	-26.446081603801069 1.5934405101220857 12.786570615853879 
	-26.529866818071966 0.72011138948552567 12.801344209716312 
	-26.498679151468991 -1.7169224961460006 12.795844982628868 
	-26.17616819915412 -3.2592870213231322 12.738977600182604 
	-24.957102753572414 -6.1485086860157576 12.524023470877164 
	-24.066276869004547 -7.4634129492804488 12.366946832370719 
	-21.825383173564639 -9.6785915689877573 11.971816812965166 
	-20.49369982354477 -10.553258607516705 11.737005108517211 
	-17.574614470650985 -11.729862489456385 11.222291601811147 
	-16.014868993425718 -12.020880399127929 10.947266391138331 
	-12.890715761190629 -11.977012046444607 10.396393884427725 
	-11.354835263667544 -11.648809845194096 10.125576713519024 
	-8.514312303337972 -10.423612968567552 9.6247158762910399 
	-7.2322727818094501 -9.5458611579995001 9.3986577183590718 
	-5.0777373193316651 -7.3541605128217125 9.0187549854310483 
	-4.2216838037301336 -6.0645437959536981 8.8678096537061712 
	-3.0369849905702755 -3.2209304478089003 8.6589152889327927 
	-2.7217376692530859 -1.6937794606445546 8.6033286805858502 
	-2.6837542485803771 1.4187257668161135 8.5966311787016512 
	-2.9691488335053817 2.972885490388415 8.6469539441720222 
	-4.1217585419142528 5.898931649056335 8.8501901339910223 
	-4.9839297443628929 7.238431145765218 9.002214178975338 
	-7.1743627899670708 9.5060234237157744 9.3884466243507703 
	-8.482650205899489 10.410087352854438 9.6191329943225679 
	-11.362148683130403 11.65183362137409 10.126866266767319 
	-12.905370223369831 11.980060730247326 10.398977861469028 
	-16.014457302544958 12.018016271077849 10.947193798899679 
	-17.552063872003025 11.732629060639271 11.218315322815066 
	-20.420217619120098 10.588964043750735 11.724048213251889 
	-21.726749635840111 9.7463758980151809 11.954425058976188 
	-23.944889003807134 7.6101015655136335 12.345542876520394 
	-24.838135818302845 6.3390833833229721 12.503046390340046 
	-25.468158505546906 4.9302901538994526 12.614136388559626 
	4.6046603737708994e-06 
	plane 0.40437766832323452 0 8.0521102017645934 0.1736481776669303 0 0.98480775301220791 -0.98480775301220791 0 0.1736481776669303 reverse_v I I I I 
	spline reversed { ref 0 } I I I I 
	nullbs 
	nubs 3 periodic 18 
	-75.907920510961929 3 -73.289483335834589 3 -70.664650685184284 3 -65.977608439258759 3 -61.235178240445677 3 
	-56.451976339646009 3 -51.670255369234212 3 -46.936786378226529 3 -42.271166968462332 3 -37.647672537169882 3 
	-33.008476205367252 3 -28.309072468094534 3 -23.554176271268204 3 -18.781128949237356 3 -14.026325669312229 3 
	-9.3118765540572479 3 -4.6417358215161082 3 -0 3 
	0.6280311539479666 -3.5621217845241997 
	0.62914686841903367 -3.4898492249630051 
	0.62997991774607154 -3.417848125921163 
	0.63052684097560951 -3.3456479149711367 
	0.63107510005317191 -3.2732713565852158 
	0.63133246096401063 -3.2011484456810662 
	0.63129797371149021 -3.1287959648006307 
	0.63123639141996035 -2.9995994865413018 
	0.63025002202129199 -2.8716768958984003 
	0.62835124905645279 -2.7423204501896534 
	0.62643003781561712 -2.6114353669426285 
	0.62361083187086397 -2.4816814163075249 
	0.61994497253404712 -2.3504237601716813 
	0.61624759700866449 -2.2180376534703936 
	0.61175691509761154 -2.0866987430206181 
	0.60660413874070007 -1.9539488521357458 
	0.6014529577383747 -1.8212400620347156 
	0.59573216540788743 -1.6896039950553789 
	0.58969762962715067 -1.5567555718741002 
	0.58372398788393876 -1.4252477119374936 
	0.57754965964500615 -1.294929734068919 
	0.5715612278843093 -1.163578101706813 
	0.56565863435093378 -1.0341092646621262 
	0.56004718574903112 -0.90596323236635712 
	0.55517671338489327 -0.77684725268769661 
	0.55035021557707198 -0.64889703630574636 
	0.54634918659511711 -0.52234695029737033 
	0.54355421274097726 -0.39474914429778662 
	0.54074974684525756 -0.26671800197977602 
	0.53922142875300549 -0.140078187120422 
	0.53913061272182106 -0.012202882406175508 
	0.53903861808183851 0.11733198568282252 
	0.54042409414447923 0.24557108701921482 
	0.54313665988651583 0.37524859218977147 
	0.54588125670167187 0.50645738177703303 
	0.54992082620164806 0.63651548549032799 
	0.55484765837880146 0.76809195192437674 
	0.55979329802177691 0.90017069239709036 
	0.56552618621984008 1.0312062227977907 
	0.57156472338880393 1.1636547721108164 
	0.5775801794276354 1.2955970626865034 
	0.58378273091515076 1.4264907433066651 
	0.58978089556052138 1.5585889956779013 
	0.59572815359428932 1.6895661260352504 
	0.60136946105382239 1.8193801261310396 
	0.60645929078363081 1.9502212571928421 
	0.61150128414526495 2.0798326880780027 
	0.61591571758262809 2.2081295807094161 
	0.61957848127799908 2.3373962321802404 
	0.62321896717001657 2.465876653011815 
	0.62605331316716417 2.5929450664195448 
	0.6280311539479666 2.7210635226553865 
	
	-1 
	-1 
	I I 
	0 
	0 
	0 
	
	-1 
	none F } I I #
simple-snl-attrib $-1 -1 $-1 $260 $237 1 1 1 1 1 1 1 1 1 1 1 1 0 1 0 1 1 1 @17 NEW_SIMPLE_ATTRIB 1 @9 ENTITY_ID 0 3 3 -2147483648 -1 #
integer_attrib-name_attrib-gen-attrib $-1 -1 $292 $-1 $261 2 1 1 1 1 1 1 1 1 1 1 1 1 1 0 1 1 1 @8 CUBIT_ID 3 #
point $-1 -1 -1 $-1 -27.999999999999993 -1.4695761589768236e-15 -19.999999999999996 #
integer_attrib-name_attrib-gen-attrib $-1 -1 $293 $-1 $268 2 1 1 1 1 1 1 1 1 1 1 1 1 1 0 1 1 1 @8 CUBIT_ID 1 #
vertex $294 -1 -1 $-1 $268 $295 #
ellipse-curve $-1 -1 -1 $-1 -15.999999999999995 0 0 0 0 -0.99999999999999967 15.999999999999995 0 0 1 I I #
coedge $-1 -1 -1 $-1 $284 $284 $285 $296 reversed $271 $-1 #
coedge $-1 -1 -1 $-1 $273 $272 $284 $296 forward $234 $297 #
edge $298 -1 -1 $-1 $276 0.64350110879328426 $299 1.7453292519943298 $272 $300 forward @7 tangent T -31.999999999999996 -1.9594348786357643e-15 3.8791935755862221 -26.519661096737799 -1.4809114494973623e-15 12.799544665685474 #
pcurve $-1 -1 -1 $-1 0 forward { exppc 2 nubs 1 open 2 
	0 1 1.7453292519943298 1 
	1 -3.1415926535897931 
	0 -3.1415926535897931 
	0 
	-1 
	spline reversed { ref 0 } I I I I 
	} 0 0 #
pcurve $-1 -1 -1 $-1 0 reversed { ref 2 } 0 6.2831853071795862 #
simple-snl-attrib $-1 -1 $-1 $275 $259 1 1 1 1 1 1 1 1 1 1 1 1 0 1 0 1 1 1 @17 NEW_SIMPLE_ATTRIB 1 @9 ENTITY_ID 0 3 15 -2147483648 -1 #
integer_attrib-name_attrib-gen-attrib $-1 -1 $301 $-1 $276 2 1 1 1 1 1 1 1 1 1 1 1 1 1 0 1 1 1 @8 CUBIT_ID 15 #
point $-1 -1 -1 $-1 -26.519661096737799 -1.4809114494973629e-15 12.799544665685474 #
simple-snl-attrib $-1 -1 $-1 $279 $261 1 1 1 1 1 1 1 1 1 1 1 1 0 1 0 1 1 1 @17 NEW_SIMPLE_ATTRIB 1 @9 ENTITY_ID 0 3 3 -2147483648 -1 #
simple-snl-attrib $-1 -1 $-1 $281 $268 1 1 1 1 1 1 1 1 1 1 1 1 0 1 0 1 1 1 @17 NEW_SIMPLE_ATTRIB 1 @9 ENTITY_ID 0 3 1 -2147483648 -1 #
integer_attrib-name_attrib-gen-attrib $-1 -1 $302 $-1 $282 2 1 1 1 1 1 1 1 1 1 1 1 1 1 0 1 1 1 @8 CUBIT_ID 1 #
point $-1 -1 -1 $-1 0 0 0 #
edge $303 -1 -1 $-1 $299 -3.1415926535897931 $299 3.1415926535897931 $284 $304 forward @7 tangent T -31.999999999999996 -15.999999999999993 1.7632698070846426 -3.5527136788005009e-15 15.999999999999993 3.8791935755862221 #
pcurve $-1 -1 -1 $-1 0 forward { exppc 3 nubs 1 periodic 2 
	-3.1415926535897931 1 3.1415926535897931 1 
	0 -3.1415926535897931 
	0 3.1415926535897931 
	0 
	-1 
	spline reversed { ref 0 } I I I I 
	} 0 0 #
integer_attrib-name_attrib-gen-attrib $-1 -1 $305 $-1 $286 2 1 1 1 1 1 1 1 1 1 1 1 1 1 0 1 1 1 @8 CUBIT_ID 16 #
vertex $306 -1 -1 $-1 $296 $307 #
ellipse-curve $-1 -1 -1 $-1 -21.999999999999993 -7.3478807948841118e-16 3.8791935755862279 1.2246467991473527e-16 -1 -2.1593827252793864e-17 1.736481776669303 0 9.8480775301220795 1 F 0 F 1.7453292519943298 #
simple-snl-attrib $-1 -1 $-1 $290 $276 1 1 1 1 1 1 1 1 1 1 1 1 0 1 0 1 1 1 @17 NEW_SIMPLE_ATTRIB 1 @9 ENTITY_ID 0 3 15 -2147483648 -1 #
simple-snl-attrib $-1 -1 $-1 $294 $282 1 1 1 1 1 1 1 1 1 1 1 1 0 1 0 1 1 1 @17 NEW_SIMPLE_ATTRIB 1 @9 ENTITY_ID 0 3 1 -2147483648 -1 #
integer_attrib-name_attrib-gen-attrib $-1 -1 $308 $-1 $296 2 1 1 1 1 1 1 1 1 1 1 1 1 1 0 1 1 1 @8 CUBIT_ID 14 #
ellipse-curve $-1 -1 -1 $-1 -15.999999999999998 0 2.8212316913354321 0.065978539374749831 1.2416554680012161e-16 0.99782104224253276 15.999999999999995 0 -1.0579618842507894 0.99782104224253287 I I #
simple-snl-attrib $-1 -1 $-1 $298 $286 1 1 1 1 1 1 1 1 1 1 1 1 0 1 0 1 1 1 @17 NEW_SIMPLE_ATTRIB 1 @9 ENTITY_ID 0 3 16 -2147483648 -1 #
integer_attrib-name_attrib-gen-attrib $-1 -1 $309 $-1 $299 2 1 1 1 1 1 1 1 1 1 1 1 1 1 0 1 1 1 @8 CUBIT_ID 14 #
point $-1 -1 -1 $-1 -31.999999999999996 -1.9594348786357643e-15 3.8791935755862221 #
simple-snl-attrib $-1 -1 $-1 $303 $296 1 1 1 1 1 1 1 1 1 1 1 1 0 1 0 1 1 1 @17 NEW_SIMPLE_ATTRIB 1 @9 ENTITY_ID 0 3 14 -2147483648 -1 #
simple-snl-attrib $-1 -1 $-1 $306 $299 1 1 1 1 1 1 1 1 1 1 1 1 0 1 0 1 1 1 @17 NEW_SIMPLE_ATTRIB 1 @9 ENTITY_ID 0 3 14 -2147483648 -1 #
End-of-ACIS-data 